<svg class="object-center object-cover bg-none w-full" version="1.1" xmlns="http://www.w3.org/2000/svg" viewBox="0 0 560 338.12027555704117">
  <!-- svg-source:excalidraw -->
  
  <defs>
    <style>
      @font-face {
        font-family: "Virgil";
        src: url("https://excalidraw.com/Virgil.woff2");
      }
      @font-face {
        font-family: "Cascadia";
        src: url("https://excalidraw.com/Cascadia.woff2");
      }
    </style>
  </defs>
  <rect x="0" y="0" width="560" height="338.12027555704117" fill="#f9fafb"></rect><g transform="translate(99 66) rotate(0 52.5 25)"><text x="0" y="18" font-family="Virgil, Segoe UI Emoji" font-size="20px" fill="#000000" text-anchor="start" style="white-space: pre;" direction="ltr">Interface </text><text x="0" y="43" font-family="Virgil, Segoe UI Emoji" font-size="20px" fill="#000000" text-anchor="start" style="white-space: pre;" direction="ltr">is great!</text></g><g transform="translate(144 160) rotate(0 8 -70.5)" stroke="none" fill="#000000"><path d="M -24.97,10.49 Q -24.97,10.49 -26.38,9.94 -27.78,9.40 -29.37,8.10 -30.95,6.80 -33.42,4.75 -35.88,2.69 -37.98,0.51 -40.07,-1.65 -41.93,-3.81 -43.78,-5.97 -45.33,-7.80 -46.89,-9.63 -48.38,-12.02 -49.88,-14.41 -51.48,-17.25 -53.08,-20.09 -54.36,-22.86 -55.64,-25.62 -56.74,-27.66 -57.84,-29.69 -58.76,-31.13 -59.68,-32.56 -60.52,-34.13 -61.36,-35.69 -61.96,-36.58 -62.55,-37.47 -63.09,-38.54 -63.63,-39.61 -64.92,-42.83 -66.21,-46.04 -67.32,-49.26 -68.42,-52.47 -69.66,-56.30 -70.89,-60.13 -72.00,-64.23 -73.10,-68.33 -73.94,-71.27 -74.77,-74.21 -75.33,-76.73 -75.88,-79.24 -76.40,-80.51 -76.92,-81.77 -77.23,-83.07 -77.54,-84.36 -77.65,-86.18 -77.76,-88.00 -77.71,-91.21 -77.67,-94.41 -77.23,-97.40 -76.79,-100.38 -75.99,-103.80 -75.19,-107.21 -72.47,-114.22 -69.74,-121.23 -66.98,-126.08 -64.22,-130.93 -62.25,-133.91 -60.28,-136.89 -57.38,-139.48 -54.48,-142.08 -50.03,-144.43 -45.58,-146.78 -41.70,-148.09 -37.81,-149.40 -34.13,-149.96 -30.45,-150.52 -27.12,-150.75 -23.79,-150.98 -20.36,-150.77 -16.93,-150.56 -12.70,-149.86 -8.47,-149.15 -5.13,-148.55 -1.79,-147.94 1.07,-147.06 3.93,-146.17 6.27,-145.50 8.61,-144.84 10.60,-144.26 12.59,-143.68 14.32,-143.50 16.05,-143.33 17.19,-143.34 18.33,-143.36 19.66,-143.47 20.98,-143.59 22.10,-143.72 23.21,-143.86 25.35,-143.97 27.48,-144.08 28.95,-144.16 30.41,-144.25 32.26,-144.30 34.12,-144.35 35.50,-144.33 36.89,-144.30 38.07,-144.31 39.24,-144.31 40.53,-144.30 41.81,-144.29 42.94,-144.30 44.07,-144.31 45.54,-144.28 47.01,-144.25 48.54,-143.90 50.07,-143.56 51.34,-143.08 52.61,-142.60 53.86,-142.09 55.12,-141.59 56.86,-140.20 58.61,-138.82 59.90,-137.64 61.18,-136.46 62.32,-135.35 63.46,-134.23 64.64,-133.19 65.82,-132.16 67.16,-130.66 68.51,-129.16 69.82,-127.58 71.12,-126.00 72.30,-123.95 73.48,-121.91 74.52,-120.19 75.56,-118.47 77.58,-113.96 79.61,-109.46 82.00,-103.59 84.40,-97.72 86.00,-93.38 87.59,-89.04 88.66,-85.64 89.73,-82.25 90.38,-79.56 91.03,-76.86 91.50,-74.17 91.97,-71.47 92.36,-68.80 92.75,-66.13 92.94,-64.05 93.13,-61.96 93.26,-60.16 93.40,-58.35 93.49,-56.66 93.59,-54.97 93.19,-52.86 92.79,-50.76 91.54,-48.24 90.30,-45.72 87.94,-42.77 85.59,-39.83 82.43,-36.47 79.27,-33.10 73.93,-29.17 68.59,-25.25 64.00,-22.08 59.40,-18.92 55.25,-16.63 51.09,-14.34 46.37,-12.15 41.66,-9.95 37.67,-8.41 33.69,-6.86 30.24,-5.59 26.79,-4.33 23.36,-3.18 19.93,-2.03 16.66,-1.23 13.40,-0.42 10.25,0.21 7.10,0.86 3.44,1.74 -0.20,2.61 -2.93,3.29 -5.66,3.97 -7.99,4.56 -10.32,5.15 -11.82,5.78 -13.32,6.40 -15.31,6.70 -17.30,7.01 -18.70,7.21 -20.11,7.41 -21.93,7.65 -23.75,7.89 -25.10,8.07 -26.45,8.24 -26.74,8.20 -27.03,8.17 -27.30,8.07 -27.58,7.97 -27.82,7.80 -28.06,7.64 -28.26,7.42 -28.45,7.20 -28.59,6.95 -28.73,6.69 -28.80,6.41 -28.87,6.12 -28.87,5.83 -28.87,5.54 -28.81,5.26 -28.74,4.97 -28.61,4.71 -28.47,4.45 -28.28,4.23 -28.09,4.01 -27.85,3.84 -27.61,3.68 -27.34,3.57 -27.07,3.47 -26.78,3.43 -26.49,3.39 -24.50,5.58 -22.50,7.77 -22.36,8.09 -22.21,8.41 -22.17,8.76 -22.13,9.11 -22.21,9.45 -22.28,9.80 -22.46,10.10 -22.64,10.40 -22.91,10.63 -23.18,10.86 -23.50,10.99 -23.83,11.12 -24.18,11.14 -24.53,11.16 -24.87,11.06 -25.21,10.97 -25.50,10.77 -25.80,10.58 -26.01,10.30 -26.22,10.02 -26.34,9.68 -26.45,9.35 -26.45,9.00 -26.45,8.65 -26.34,8.31 -26.23,7.98 -26.01,7.70 -25.80,7.42 -25.51,7.22 -25.22,7.02 -24.88,6.93 -24.54,6.83 -24.19,6.85 -23.84,6.87 -23.51,7.00 -23.18,7.13 -22.92,7.36 -22.65,7.58 -22.46,7.89 -22.28,8.19 -22.21,8.53 -22.13,8.87 -22.17,9.22 -22.21,9.57 -22.35,9.89 -22.50,10.21 -22.74,10.47 -22.98,10.72 -23.29,10.89 -23.61,11.06 -23.95,11.11 -24.30,11.17 -24.65,11.11 -24.99,11.06 -25.31,10.89 -25.62,10.73 -25.86,10.47 -26.10,10.22 -26.10,10.22 -26.10,10.22 -26.27,9.23 -26.45,8.24 -26.74,8.20 -27.03,8.17 -27.30,8.07 -27.58,7.97 -27.82,7.80 -28.06,7.64 -28.26,7.42 -28.45,7.20 -28.59,6.95 -28.73,6.69 -28.80,6.41 -28.87,6.12 -28.87,5.83 -28.87,5.54 -28.81,5.26 -28.74,4.97 -28.61,4.71 -28.47,4.45 -28.28,4.23 -28.09,4.01 -27.85,3.84 -27.61,3.68 -27.34,3.57 -27.07,3.47 -26.78,3.43 -26.49,3.39 -25.16,3.54 -23.84,3.68 -22.10,3.80 -20.36,3.92 -19.03,3.92 -17.69,3.92 -15.99,3.75 -14.29,3.59 -12.63,3.09 -10.97,2.60 -8.63,2.01 -6.29,1.41 -3.55,0.73 -0.81,0.05 2.87,-0.83 6.57,-1.72 9.67,-2.35 12.77,-2.99 15.92,-3.77 19.08,-4.55 22.48,-5.69 25.88,-6.83 29.30,-8.09 32.72,-9.35 36.62,-10.87 40.52,-12.40 45.15,-14.56 49.78,-16.72 53.81,-18.95 57.84,-21.18 62.38,-24.34 66.93,-27.50 72.05,-31.28 77.17,-35.06 80.22,-38.37 83.27,-41.67 85.40,-44.38 87.53,-47.08 88.57,-49.25 89.60,-51.41 89.96,-53.17 90.31,-54.92 90.35,-56.58 90.38,-58.23 90.37,-59.98 90.37,-61.74 90.21,-63.73 90.06,-65.73 89.66,-68.36 89.26,-70.99 88.78,-73.59 88.31,-76.19 87.65,-78.78 86.99,-81.37 85.90,-84.68 84.82,-88.00 83.18,-92.26 81.54,-96.53 79.09,-102.31 76.64,-108.09 74.62,-112.34 72.60,-116.60 71.48,-118.28 70.36,-119.96 69.23,-121.63 68.09,-123.29 66.72,-124.70 65.34,-126.11 64.06,-127.34 62.77,-128.58 61.45,-129.67 60.12,-130.77 59.04,-131.79 57.96,-132.82 56.79,-133.81 55.62,-134.80 54.35,-135.67 53.08,-136.53 51.84,-137.00 50.59,-137.48 48.78,-138.13 46.97,-138.78 45.52,-138.75 44.07,-138.72 42.94,-138.73 41.81,-138.74 40.53,-138.73 39.24,-138.72 38.07,-138.72 36.89,-138.73 35.50,-138.70 34.12,-138.68 32.26,-138.73 30.41,-138.78 28.95,-138.87 27.48,-138.95 25.26,-139.08 23.03,-139.20 21.95,-139.35 20.87,-139.50 19.45,-139.75 18.02,-139.99 16.84,-140.21 15.65,-140.44 13.74,-140.77 11.83,-141.10 9.86,-141.70 7.89,-142.30 5.52,-142.98 3.15,-143.66 0.44,-144.50 -2.26,-145.35 -5.58,-145.94 -8.91,-146.54 -13.00,-147.23 -17.09,-147.92 -20.35,-148.12 -23.61,-148.33 -26.83,-148.10 -30.05,-147.88 -33.51,-147.36 -36.96,-146.84 -40.64,-145.61 -44.32,-144.38 -48.50,-142.20 -52.67,-140.01 -55.31,-137.67 -57.96,-135.33 -59.85,-132.43 -61.73,-129.53 -64.37,-124.85 -67.00,-120.17 -69.60,-113.35 -72.20,-106.54 -72.90,-103.25 -73.59,-99.96 -73.90,-97.20 -74.22,-94.44 -74.11,-91.31 -74.00,-88.17 -73.95,-86.55 -73.90,-84.93 -73.84,-83.85 -73.78,-82.78 -73.43,-81.33 -73.07,-79.89 -72.50,-77.47 -71.92,-75.05 -71.01,-72.11 -70.10,-69.17 -68.94,-65.18 -67.78,-61.19 -66.44,-57.44 -65.11,-53.70 -63.85,-50.57 -62.59,-47.43 -61.59,-45.13 -60.59,-42.82 -59.96,-41.01 -59.34,-39.20 -58.90,-38.16 -58.46,-37.12 -57.77,-35.60 -57.09,-34.07 -56.28,-32.53 -55.46,-30.98 -54.31,-28.88 -53.16,-26.78 -51.92,-24.12 -50.67,-21.46 -49.08,-18.69 -47.49,-15.92 -46.09,-13.73 -44.69,-11.53 -43.11,-9.75 -41.52,-7.96 -39.67,-5.92 -37.83,-3.87 -35.81,-1.89 -33.79,0.08 -31.19,2.07 -28.59,4.06 -27.44,5.11 -26.30,6.16 -24.97,6.83 -23.64,7.50 -23.47,7.60 -23.30,7.70 -23.16,7.84 -23.02,7.98 -22.92,8.15 -22.81,8.32 -22.75,8.51 -22.69,8.69 -22.68,8.89 -22.67,9.09 -22.70,9.28 -22.74,9.48 -22.82,9.66 -22.90,9.84 -23.02,9.99 -23.14,10.15 -23.30,10.27 -23.45,10.39 -23.63,10.47 -23.81,10.56 -24.00,10.59 -24.20,10.63 -24.39,10.62 -24.59,10.61 -24.78,10.55 -24.97,10.49 -24.97,10.49 L -24.97,10.49 Z"></path></g><g transform="translate(124 191) rotate(0 7 17.5)" stroke="none" fill="#000000"><path d="M 0,2.66 Q 0,2.66 -0.57,2.70 -1.15,2.74 -2.46,2.80 -3.77,2.86 -5.02,3.76 -6.27,4.65 -7.18,5.57 -8.10,6.49 -7.89,7.88 -7.69,9.28 -7.65,10.36 -7.62,11.44 -7.67,12.75 -7.73,14.06 -7.72,15.55 -7.71,17.04 -6.75,18.59 -5.80,20.14 -4.84,21.61 -3.88,23.07 -3.07,24.11 -2.25,25.15 -1.31,26.24 -0.37,27.34 1.32,28.47 3.02,29.60 3.96,30.11 4.90,30.63 6.02,31.10 7.14,31.58 8.24,31.75 9.34,31.92 10.94,32.08 12.55,32.25 14.12,32.33 15.68,32.41 17.21,32.45 18.74,32.49 20.36,32.41 21.99,32.33 21.59,33.35 21.19,34.37 21.15,32.54 21.10,30.70 21.51,28.85 21.92,26.99 22.03,25.82 22.14,24.65 21.43,22.85 20.71,21.04 20.11,19.94 19.50,18.84 18.56,17.77 17.63,16.70 16.88,15.93 16.13,15.16 15.35,14.05 14.58,12.95 13.85,12.11 13.12,11.27 12.24,10.31 11.36,9.35 9.82,7.81 8.28,6.26 7.41,5.64 6.54,5.02 5.09,5.10 3.64,5.17 1.03,3.81 -1.57,2.45 -1.92,2.13 -2.27,1.82 -2.50,1.40 -2.73,0.99 -2.82,0.53 -2.91,0.07 -2.84,-0.39 -2.78,-0.86 -2.57,-1.28 -2.36,-1.70 -2.02,-2.03 -1.69,-2.36 -1.27,-2.57 -0.84,-2.78 -0.38,-2.84 0.08,-2.91 0.54,-2.82 1.00,-2.73 1.41,-2.49 1.82,-2.26 2.14,-1.91 2.45,-1.56 2.64,-1.13 2.82,-0.69 2.86,-0.22 2.90,0.24 2.78,0.69 2.67,1.15 2.41,1.55 2.16,1.94 1.79,2.24 1.42,2.53 0.98,2.69 0.54,2.86 0.07,2.87 -0.39,2.88 -0.84,2.74 -1.29,2.60 -1.68,2.33 -2.06,2.05 -2.33,1.67 -2.61,1.28 -2.74,0.83 -2.88,0.38 -2.87,-0.08 -2.85,-0.55 -2.69,-0.99 -2.53,-1.43 -2.23,-1.80 -1.94,-2.17 -1.54,-2.42 -1.14,-2.67 -0.68,-2.79 -0.23,-2.90 0.23,-2.86 0.70,-2.82 1.14,-2.63 1.57,-2.45 1.57,-2.45 1.57,-2.45 3.04,-1.79 4.52,-1.13 5.60,-1.05 6.68,-0.98 7.90,-0.58 9.13,-0.19 10.70,1.06 12.27,2.32 13.83,3.94 15.39,5.55 16.37,6.57 17.36,7.59 18.78,9.44 20.20,11.29 21.60,12.90 23.00,14.51 23.59,15.42 24.18,16.33 24.73,17.37 25.27,18.42 26.10,20.01 26.92,21.59 27.19,23.37 27.46,25.14 27.31,26.54 27.17,27.95 26.96,29.43 26.76,30.92 26.41,33.27 26.07,35.62 24.02,36.64 21.97,37.65 20.32,37.55 18.68,37.45 17.12,37.46 15.56,37.46 13.91,37.46 12.27,37.46 10.38,37.44 8.48,37.42 6.76,37.15 5.04,36.87 3.58,36.31 2.12,35.75 1.06,35.17 0.00,34.59 -1.11,33.91 -2.24,33.24 -3.45,32.33 -4.67,31.42 -5.79,30.33 -6.91,29.24 -8.24,27.84 -9.57,26.43 -10.56,24.97 -11.55,23.50 -12.45,22.16 -13.34,20.82 -13.81,18.93 -14.28,17.04 -14.27,15.55 -14.26,14.06 -14.29,12.16 -14.33,10.26 -14.29,8.80 -14.24,7.33 -14.16,6.23 -14.08,5.13 -13.66,4.08 -13.24,3.03 -12.25,2.03 -11.26,1.03 -9.89,-0.05 -8.53,-1.13 -7.53,-1.66 -6.53,-2.19 -5.19,-2.52 -3.85,-2.86 -2.50,-2.80 -1.15,-2.74 -0.57,-2.70 0,-2.66 0.31,-2.62 0.63,-2.58 0.93,-2.47 1.23,-2.36 1.50,-2.17 1.76,-1.99 1.98,-1.75 2.19,-1.51 2.34,-1.23 2.49,-0.94 2.57,-0.63 2.64,-0.32 2.64,0.00 2.64,0.32 2.57,0.63 2.49,0.94 2.34,1.23 2.19,1.51 1.98,1.75 1.76,1.99 1.50,2.17 1.23,2.36 0.93,2.47 0.63,2.58 0.31,2.62 -0.00,2.66 -0.00,2.66 L 0,2.66 Z"></path></g><g transform="translate(132 232) rotate(0 0.00004999999998744897 0.00004999999998744897)" stroke="none" fill="#000000"><path d="M 1.57,-1.57 Q 1.57,-1.57 1.77,-1.27 1.98,-0.98 2.09,-0.64 2.20,-0.29 2.19,0.05 2.18,0.41 2.05,0.75 1.93,1.09 1.70,1.37 1.48,1.65 1.18,1.84 0.87,2.04 0.52,2.12 0.18,2.21 -0.17,2.18 -0.53,2.15 -0.86,2.01 -1.19,1.87 -1.46,1.63 -1.73,1.39 -1.90,1.07 -2.08,0.76 -2.15,0.41 -2.21,0.05 -2.17,-0.29 -2.12,-0.65 -1.96,-0.97 -1.80,-1.29 -1.54,-1.54 -1.29,-1.80 -0.97,-1.96 -0.65,-2.12 -0.29,-2.17 0.06,-2.21 0.41,-2.15 0.76,-2.08 1.07,-1.90 1.39,-1.73 1.63,-1.46 1.87,-1.19 2.01,-0.86 2.15,-0.53 2.18,-0.17 2.21,0.18 2.12,0.52 2.03,0.87 1.84,1.18 1.65,1.48 1.37,1.70 1.09,1.93 0.75,2.05 0.41,2.18 0.05,2.19 -0.30,2.20 -0.64,2.09 -0.98,1.98 -1.27,1.77 -1.57,1.56 -1.57,1.57 -1.57,1.57 -1.73,1.35 -1.90,1.14 -2.01,0.90 -2.12,0.66 -2.16,0.39 -2.21,0.13 -2.20,-0.13 -2.18,-0.40 -2.10,-0.65 -2.02,-0.91 -1.88,-1.14 -1.74,-1.36 -1.55,-1.55 -1.36,-1.74 -1.14,-1.88 -0.91,-2.02 -0.65,-2.10 -0.40,-2.18 -0.13,-2.20 0.13,-2.21 0.39,-2.16 0.66,-2.12 0.90,-2.01 1.14,-1.90 1.35,-1.73 1.57,-1.57 1.57,-1.57 L 1.57,-1.57 Z"></path></g><g transform="translate(132 224) rotate(0 0 26.5)" stroke="none" fill="#000000"><path d="M 2.04,0.13 Q 2.04,0.13 1.66,4.44 1.27,8.74 1.08,13.13 0.88,17.51 1.06,21.62 1.25,25.73 1.59,29.48 1.94,33.24 2.08,35.74 2.21,38.24 2.36,39.88 2.51,41.52 2.74,43.22 2.98,44.92 3.12,46.06 3.26,47.19 3.38,48.26 3.51,49.33 3.56,51.16 3.61,52.99 3.54,53.41 3.47,53.83 3.27,54.20 3.07,54.58 2.77,54.87 2.46,55.16 2.08,55.33 1.69,55.51 1.27,55.56 0.85,55.60 0.44,55.51 0.03,55.42 -0.32,55.20 -0.69,54.99 -0.96,54.66 -1.23,54.34 -1.39,53.95 -1.55,53.56 -1.57,53.13 -1.59,52.71 -1.48,52.31 -1.37,51.90 -1.13,51.55 -0.89,51.20 -0.55,50.94 -0.22,50.69 0.17,50.55 0.57,50.42 1.00,50.42 1.42,50.42 1.82,50.55 2.22,50.69 2.56,50.94 2.89,51.20 3.13,51.55 3.37,51.90 3.48,52.31 3.59,52.71 3.57,53.14 3.55,53.56 3.39,53.95 3.23,54.34 2.96,54.66 2.69,54.99 2.32,55.20 1.96,55.42 1.55,55.51 1.14,55.60 0.72,55.56 0.30,55.51 -0.08,55.33 -0.46,55.16 -0.77,54.87 -1.07,54.58 -1.27,54.20 -1.47,53.83 -1.54,53.41 -1.61,52.99 -1.61,52.99 -1.61,53.00 -1.56,51.16 -1.51,49.33 -1.39,48.27 -1.27,47.21 -1.14,46.10 -1.02,44.99 -0.87,43.33 -0.72,41.66 -0.71,40.05 -0.70,38.44 -0.89,35.99 -1.08,33.55 -1.51,29.73 -1.94,25.91 -2.23,21.66 -2.52,17.41 -2.47,12.96 -2.42,8.50 -2.23,4.18 -2.04,-0.13 -2.00,-0.37 -1.95,-0.62 -1.85,-0.84 -1.74,-1.07 -1.59,-1.26 -1.44,-1.45 -1.24,-1.61 -1.05,-1.76 -0.82,-1.86 -0.59,-1.96 -0.35,-2.00 -0.11,-2.04 0.13,-2.03 0.38,-2.01 0.61,-1.94 0.85,-1.86 1.06,-1.73 1.27,-1.60 1.44,-1.43 1.62,-1.25 1.74,-1.04 1.87,-0.83 1.94,-0.59 2.02,-0.35 2.03,-0.11 2.04,0.13 2.04,0.13 L 2.04,0.13 Z"></path></g><g transform="translate(132 245) rotate(0 -13.5 2.5)" stroke="none" fill="#000000"><path d="M 0.72,2.16 Q 0.72,2.16 -1.01,2.69 -2.75,3.22 -5.04,3.66 -7.32,4.11 -10.25,4.82 -13.19,5.53 -15.08,5.89 -16.97,6.25 -18.38,6.47 -19.79,6.70 -21.67,6.95 -23.54,7.20 -25.26,7.25 -26.98,7.29 -27.34,7.23 -27.71,7.18 -28.04,7.01 -28.37,6.83 -28.63,6.57 -28.89,6.30 -29.04,5.96 -29.20,5.63 -29.25,5.26 -29.29,4.89 -29.21,4.53 -29.14,4.16 -28.95,3.84 -28.76,3.52 -28.48,3.28 -28.19,3.04 -27.85,2.90 -27.51,2.76 -27.14,2.73 -26.77,2.71 -26.41,2.81 -26.05,2.90 -25.74,3.11 -25.43,3.32 -25.20,3.61 -24.97,3.90 -24.85,4.25 -24.73,4.61 -24.73,4.98 -24.73,5.35 -24.84,5.70 -24.96,6.05 -25.18,6.35 -25.40,6.65 -25.71,6.86 -26.01,7.07 -26.37,7.17 -26.73,7.28 -27.10,7.26 -27.47,7.24 -27.82,7.11 -28.16,6.97 -28.45,6.73 -28.73,6.50 -28.93,6.18 -29.12,5.86 -29.20,5.50 -29.29,5.14 -29.25,4.77 -29.21,4.40 -29.06,4.06 -28.91,3.72 -28.65,3.45 -28.40,3.18 -28.07,3.00 -27.75,2.82 -27.38,2.76 -27.01,2.70 -27.01,2.70 -27.01,2.70 -25.34,2.71 -23.67,2.71 -21.94,2.79 -20.21,2.86 -18.92,2.80 -17.63,2.74 -15.88,2.41 -14.13,2.09 -11.19,1.20 -8.25,0.31 -6.19,-0.30 -4.14,-0.92 -2.43,-1.54 -0.72,-2.16 -0.45,-2.22 -0.18,-2.27 0.09,-2.26 0.36,-2.25 0.63,-2.17 0.89,-2.10 1.13,-1.96 1.37,-1.82 1.57,-1.63 1.77,-1.44 1.91,-1.21 2.06,-0.97 2.15,-0.71 2.23,-0.45 2.26,-0.18 2.28,0.09 2.23,0.36 2.19,0.63 2.08,0.89 1.97,1.14 1.81,1.36 1.64,1.58 1.43,1.75 1.22,1.93 0.97,2.05 0.72,2.16 0.72,2.16 L 0.72,2.16 Z"></path></g><g transform="translate(130 249) rotate(0 12.5 6.5)" stroke="none" fill="#000000"><path d="M 0.81,-2.43 Q 0.81,-2.43 2.51,-1.78 4.21,-1.13 5.59,-0.58 6.98,-0.02 8.01,0.52 9.04,1.08 10.44,1.53 11.83,1.98 13.10,2.02 14.38,2.06 15.56,1.99 16.73,1.93 18.01,1.87 19.29,1.81 21.10,2.20 22.91,2.59 24.37,3.86 25.83,5.13 26.11,6.31 26.38,7.50 27.33,9.66 28.27,11.83 28.37,12.38 28.47,12.93 28.39,13.49 28.31,14.05 28.05,14.55 27.80,15.05 27.40,15.44 27.00,15.84 26.49,16.08 25.98,16.33 25.43,16.40 24.87,16.47 24.32,16.36 23.76,16.25 23.28,15.97 22.79,15.68 22.42,15.26 22.05,14.84 21.83,14.32 21.61,13.80 21.57,13.24 21.53,12.68 21.67,12.13 21.81,11.59 22.12,11.12 22.43,10.65 22.87,10.30 23.31,9.95 23.84,9.76 24.37,9.57 24.94,9.56 25.50,9.55 26.03,9.73 26.57,9.90 27.02,10.23 27.48,10.56 27.80,11.02 28.12,11.48 28.28,12.02 28.44,12.56 28.42,13.12 28.40,13.68 28.20,14.21 28.00,14.74 27.65,15.17 27.29,15.61 26.81,15.90 26.34,16.20 25.79,16.33 25.24,16.46 24.68,16.41 24.12,16.36 23.61,16.13 23.09,15.91 22.68,15.53 22.26,15.15 21.99,14.65 21.72,14.16 21.72,14.16 21.72,14.16 21.27,12.83 20.82,11.51 20.06,9.84 19.29,8.18 17.82,8.11 16.36,8.03 15.21,7.94 14.06,7.84 12.71,7.64 11.37,7.44 9.79,6.79 8.20,6.15 6.67,5.30 5.14,4.45 3.91,3.94 2.68,3.43 0.93,2.93 -0.81,2.43 -1.09,2.30 -1.37,2.16 -1.60,1.97 -1.84,1.77 -2.03,1.53 -2.22,1.28 -2.34,0.99 -2.46,0.71 -2.51,0.40 -2.56,0.10 -2.53,-0.20 -2.51,-0.51 -2.41,-0.80 -2.31,-1.09 -2.15,-1.36 -1.98,-1.62 -1.76,-1.83 -1.54,-2.05 -1.27,-2.20 -1.00,-2.35 -0.70,-2.44 -0.41,-2.53 -0.10,-2.54 0.20,-2.55 0.50,-2.49 0.81,-2.43 0.81,-2.43 L 0.81,-2.43 Z"></path></g><g transform="translate(129 275) rotate(0 -3.5 15.5)" stroke="none" fill="#000000"><path d="M 1.54,1.92 Q 1.54,1.92 0.05,3.01 -1.42,4.11 -2.26,4.89 -3.10,5.67 -3.13,6.74 -3.17,7.82 -3.09,9.18 -3.02,10.54 -2.97,11.83 -2.93,13.13 -2.87,14.97 -2.82,16.82 -2.85,18.02 -2.88,19.22 -2.89,20.34 -2.91,21.46 -3.28,22.73 -3.65,23.99 -3.75,25.64 -3.84,27.29 -3.87,29.16 -3.89,31.04 -3.98,31.54 -4.07,32.03 -4.31,32.47 -4.55,32.91 -4.92,33.25 -5.29,33.59 -5.75,33.79 -6.21,34.00 -6.71,34.04 -7.21,34.09 -7.70,33.98 -8.19,33.86 -8.61,33.60 -9.04,33.33 -9.36,32.94 -9.68,32.56 -9.86,32.09 -10.04,31.62 -10.06,31.12 -10.08,30.61 -9.93,30.13 -9.79,29.65 -9.50,29.24 -9.22,28.83 -8.81,28.53 -8.41,28.23 -7.93,28.08 -7.45,27.92 -6.95,27.93 -6.45,27.94 -5.97,28.11 -5.50,28.27 -5.10,28.58 -4.71,28.89 -4.43,29.31 -4.16,29.73 -4.03,30.22 -3.90,30.71 -3.94,31.21 -3.97,31.71 -4.17,32.17 -4.36,32.64 -4.69,33.01 -5.02,33.39 -5.46,33.64 -5.89,33.90 -6.38,34.00 -6.87,34.10 -7.37,34.03 -7.87,33.97 -8.32,33.76 -8.78,33.54 -9.13,33.19 -9.49,32.84 -9.72,32.39 -9.95,31.94 -10.02,31.44 -10.10,30.95 -10.10,30.95 -10.10,30.95 -10.05,28.99 -9.99,27.03 -9.96,25.64 -9.92,24.25 -9.71,23.02 -9.49,21.79 -9.30,20.50 -9.11,19.22 -9.14,18.02 -9.17,16.82 -9.12,14.97 -9.06,13.13 -9.00,11.53 -8.93,9.93 -8.81,8.24 -8.70,6.55 -8.43,5.50 -8.17,4.45 -7.20,3.24 -6.24,2.03 -5.28,1.26 -4.32,0.48 -2.93,-0.71 -1.54,-1.92 -1.28,-2.08 -1.03,-2.24 -0.75,-2.33 -0.46,-2.42 -0.17,-2.44 0.12,-2.46 0.41,-2.41 0.71,-2.36 0.98,-2.24 1.25,-2.12 1.49,-1.94 1.72,-1.76 1.91,-1.53 2.10,-1.29 2.22,-1.02 2.34,-0.75 2.40,-0.46 2.46,-0.17 2.44,0.12 2.43,0.42 2.34,0.70 2.26,0.99 2.11,1.24 1.95,1.50 1.75,1.71 1.54,1.92 1.54,1.92 L 1.54,1.92 Z"></path></g><g transform="translate(136 273) rotate(0 14.5 7.5)" stroke="none" fill="#000000"><path d="M 0.95,-2.14 Q 0.95,-2.14 3.48,-0.86 6.01,0.40 7.69,1.21 9.36,2.02 11.21,3.01 13.05,3.99 14.45,4.62 15.84,5.25 16.85,5.82 17.86,6.38 19.20,6.44 20.53,6.50 21.54,6.92 22.56,7.34 24.14,8.24 25.73,9.15 26.59,10.19 27.44,11.23 28.53,11.72 29.61,12.22 30.04,12.39 30.46,12.56 30.81,12.86 31.16,13.15 31.40,13.55 31.64,13.94 31.74,14.39 31.84,14.84 31.79,15.30 31.74,15.76 31.54,16.18 31.35,16.59 31.03,16.93 30.71,17.26 30.31,17.48 29.90,17.69 29.45,17.77 28.99,17.84 28.54,17.76 28.09,17.69 27.68,17.47 27.27,17.26 26.96,16.92 26.64,16.59 26.45,16.17 26.25,15.75 26.20,15.30 26.16,14.84 26.25,14.39 26.35,13.94 26.59,13.55 26.83,13.15 27.18,12.85 27.53,12.56 27.96,12.39 28.39,12.22 28.85,12.19 29.30,12.17 29.75,12.29 30.19,12.41 30.57,12.67 30.95,12.93 31.23,13.30 31.51,13.66 31.66,14.10 31.80,14.54 31.80,15.00 31.80,15.46 31.65,15.89 31.51,16.33 31.23,16.70 30.95,17.06 30.57,17.32 30.19,17.58 29.74,17.70 29.30,17.82 28.84,17.80 28.38,17.77 28.38,17.77 28.38,17.77 25.65,16.12 22.91,14.47 22.25,13.60 21.58,12.72 20.74,12.04 19.90,11.36 18.57,11.05 17.25,10.75 15.68,9.75 14.11,8.75 12.77,8.04 11.43,7.33 9.55,6.50 7.67,5.67 6.00,4.93 4.33,4.19 1.69,3.16 -0.95,2.14 -1.19,1.99 -1.43,1.85 -1.63,1.65 -1.83,1.45 -1.98,1.21 -2.13,0.97 -2.21,0.70 -2.30,0.43 -2.32,0.15 -2.34,-0.13 -2.29,-0.40 -2.24,-0.68 -2.12,-0.94 -2.01,-1.20 -1.83,-1.42 -1.66,-1.65 -1.44,-1.82 -1.22,-2.00 -0.96,-2.11 -0.70,-2.23 -0.43,-2.28 -0.15,-2.33 0.12,-2.32 0.41,-2.30 0.68,-2.22 0.95,-2.14 0.95,-2.14 L 0.95,-2.14 Z"></path></g><g transform="translate(125 211) rotate(0 4.5 1)" stroke="none" fill="#000000"><path d="M 0.75,-2.26 Q 0.75,-2.26 2.46,-1.63 4.16,-1.00 6.70,-0.70 9.24,-0.40 9.62,-0.30 10.00,-0.19 10.32,0.01 10.65,0.23 10.88,0.54 11.12,0.85 11.25,1.22 11.38,1.59 11.38,1.98 11.38,2.37 11.26,2.74 11.14,3.11 10.90,3.43 10.67,3.74 10.34,3.96 10.02,4.18 9.65,4.29 9.27,4.40 8.88,4.38 8.49,4.36 8.13,4.21 7.76,4.07 7.46,3.82 7.16,3.57 6.96,3.24 6.76,2.90 6.67,2.52 6.58,2.14 6.62,1.75 6.66,1.36 6.83,1.01 6.99,0.65 7.26,0.37 7.52,0.08 7.87,-0.10 8.21,-0.28 8.60,-0.35 8.98,-0.41 9.37,-0.35 9.75,-0.29 10.10,-0.11 10.45,0.06 10.72,0.35 10.99,0.63 11.15,0.98 11.32,1.34 11.36,1.72 11.41,2.11 11.33,2.49 11.24,2.88 11.04,3.21 10.84,3.55 10.55,3.80 10.25,4.06 9.89,4.20 9.53,4.35 9.14,4.37 8.75,4.40 8.75,4.40 8.75,4.40 6.84,4.17 4.94,3.95 3.83,3.62 2.73,3.30 0.98,2.78 -0.75,2.26 -1.01,2.14 -1.27,2.02 -1.50,1.84 -1.72,1.65 -1.89,1.42 -2.07,1.19 -2.18,0.93 -2.29,0.66 -2.34,0.38 -2.39,0.09 -2.36,-0.19 -2.34,-0.47 -2.25,-0.75 -2.16,-1.02 -2.00,-1.26 -1.85,-1.51 -1.64,-1.71 -1.43,-1.91 -1.18,-2.05 -0.93,-2.20 -0.66,-2.28 -0.38,-2.36 -0.09,-2.37 0.19,-2.38 0.47,-2.32 0.75,-2.26 0.75,-2.26 L 0.75,-2.26 Z"></path></g><g transform="translate(121 202) rotate(0 0.00004999999998744897 0.00004999999998744897)" stroke="none" fill="#000000"><path d="M 1.57,-1.57 Q 1.57,-1.57 1.77,-1.27 1.98,-0.98 2.09,-0.64 2.20,-0.29 2.19,0.05 2.18,0.41 2.05,0.75 1.93,1.09 1.70,1.37 1.48,1.65 1.18,1.84 0.87,2.04 0.52,2.12 0.18,2.21 -0.17,2.18 -0.53,2.15 -0.86,2.01 -1.19,1.87 -1.46,1.63 -1.73,1.39 -1.90,1.07 -2.08,0.76 -2.15,0.41 -2.21,0.05 -2.17,-0.29 -2.12,-0.65 -1.96,-0.97 -1.80,-1.29 -1.54,-1.54 -1.29,-1.80 -0.97,-1.96 -0.65,-2.12 -0.29,-2.17 0.06,-2.21 0.41,-2.15 0.76,-2.08 1.07,-1.90 1.39,-1.73 1.63,-1.46 1.87,-1.19 2.01,-0.86 2.15,-0.53 2.18,-0.17 2.21,0.18 2.12,0.52 2.03,0.87 1.84,1.18 1.65,1.48 1.37,1.70 1.09,1.93 0.75,2.05 0.41,2.18 0.05,2.19 -0.30,2.20 -0.64,2.09 -0.98,1.98 -1.27,1.77 -1.57,1.56 -1.57,1.57 -1.57,1.57 -1.73,1.35 -1.90,1.14 -2.01,0.90 -2.12,0.66 -2.16,0.39 -2.21,0.13 -2.20,-0.13 -2.18,-0.40 -2.10,-0.65 -2.02,-0.91 -1.88,-1.14 -1.74,-1.36 -1.55,-1.55 -1.36,-1.74 -1.14,-1.88 -0.91,-2.02 -0.65,-2.10 -0.40,-2.18 -0.13,-2.20 0.13,-2.21 0.39,-2.16 0.66,-2.12 0.90,-2.01 1.14,-1.90 1.35,-1.73 1.57,-1.57 1.57,-1.57 L 1.57,-1.57 Z"></path></g><g transform="translate(128 202) rotate(0 0.00004999999998744897 0.00004999999998744897)" stroke="none" fill="#000000"><path d="M 1.57,-1.57 Q 1.57,-1.57 1.77,-1.27 1.98,-0.98 2.09,-0.64 2.20,-0.29 2.19,0.05 2.18,0.41 2.05,0.75 1.93,1.09 1.70,1.37 1.48,1.65 1.18,1.84 0.87,2.04 0.52,2.12 0.18,2.21 -0.17,2.18 -0.53,2.15 -0.86,2.01 -1.19,1.87 -1.46,1.63 -1.73,1.39 -1.90,1.07 -2.08,0.76 -2.15,0.41 -2.21,0.05 -2.17,-0.29 -2.12,-0.65 -1.96,-0.97 -1.80,-1.29 -1.54,-1.54 -1.29,-1.80 -0.97,-1.96 -0.65,-2.12 -0.29,-2.17 0.06,-2.21 0.41,-2.15 0.76,-2.08 1.07,-1.90 1.39,-1.73 1.63,-1.46 1.87,-1.19 2.01,-0.86 2.15,-0.53 2.18,-0.17 2.21,0.18 2.12,0.52 2.03,0.87 1.84,1.18 1.65,1.48 1.37,1.70 1.09,1.93 0.75,2.05 0.41,2.18 0.05,2.19 -0.30,2.20 -0.64,2.09 -0.98,1.98 -1.27,1.77 -1.57,1.56 -1.57,1.57 -1.57,1.57 -1.73,1.35 -1.90,1.14 -2.01,0.90 -2.12,0.66 -2.16,0.39 -2.21,0.13 -2.20,-0.13 -2.18,-0.40 -2.10,-0.65 -2.02,-0.91 -1.88,-1.14 -1.74,-1.36 -1.55,-1.55 -1.36,-1.74 -1.14,-1.88 -0.91,-2.02 -0.65,-2.10 -0.40,-2.18 -0.13,-2.20 0.13,-2.21 0.39,-2.16 0.66,-2.12 0.90,-2.01 1.14,-1.90 1.35,-1.73 1.57,-1.57 1.57,-1.57 L 1.57,-1.57 Z"></path></g><g transform="translate(332 169) rotate(0 18.5 8)" stroke="none" fill="#000000"><path d="M 2.18,0.54 Q 2.18,0.54 1.94,1.70 1.70,2.86 1.26,4.49 0.82,6.12 0.55,8.06 0.28,10.01 0.13,12.01 -0.01,14.01 0.27,15.26 0.57,16.50 0.99,17.53 1.41,18.56 2.10,19.75 2.78,20.95 4.15,21.97 5.53,23.00 6.56,23.51 7.59,24.03 8.94,24.88 10.28,25.73 11.60,25.98 12.93,26.22 14.66,26.42 16.39,26.61 18.29,26.74 20.18,26.86 22.14,26.95 24.09,27.03 25.63,26.76 27.16,26.49 28.31,26.06 29.46,25.63 30.85,25.14 32.25,24.65 33.33,24.15 34.41,23.65 35.49,22.72 36.57,21.78 36.97,20.18 37.37,18.57 36.52,16.89 35.67,15.21 33.94,12.64 32.22,10.06 30.13,7.84 28.04,5.62 25.41,2.88 22.78,0.15 20.86,-1.55 18.93,-3.26 17.03,-4.54 15.13,-5.81 13.43,-6.94 11.72,-8.08 9.46,-8.78 7.19,-9.49 5.74,-10.04 4.28,-10.60 2.57,-10.72 0.85,-10.84 0.18,-9.93 -0.48,-9.01 -0.31,-7.83 -0.14,-6.65 -0.14,-5.40 -0.13,-4.14 0.94,-2.88 2.02,-1.62 2.22,-1.25 2.43,-0.89 2.51,-0.47 2.59,-0.06 2.53,0.34 2.47,0.76 2.28,1.13 2.10,1.51 1.80,1.81 1.50,2.10 1.13,2.29 0.75,2.47 0.34,2.53 -0.07,2.59 -0.48,2.51 -0.89,2.43 -1.26,2.22 -1.62,2.01 -1.90,1.70 -2.18,1.39 -2.35,1.00 -2.51,0.62 -2.54,0.20 -2.58,-0.21 -2.48,-0.62 -2.37,-1.02 -2.15,-1.38 -1.92,-1.73 -1.59,-1.99 -1.27,-2.25 -0.87,-2.40 -0.48,-2.54 -0.06,-2.55 0.35,-2.56 0.75,-2.44 1.15,-2.32 1.49,-2.07 1.83,-1.83 2.07,-1.48 2.32,-1.14 2.44,-0.74 2.56,-0.34 2.55,0.07 2.54,0.49 2.39,0.88 2.25,1.27 1.99,1.60 1.72,1.93 1.37,2.15 1.02,2.38 0.61,2.48 0.20,2.58 -0.21,2.54 -0.62,2.51 -1.01,2.34 -1.39,2.18 -1.71,1.90 -2.02,1.62 -2.02,1.62 -2.02,1.62 -3.93,-0.85 -5.85,-3.32 -5.83,-5.07 -5.81,-6.81 -5.67,-7.98 -5.54,-9.14 -4.89,-10.74 -4.24,-12.34 -3.13,-13.27 -2.01,-14.21 -0.97,-14.64 0.07,-15.08 1.58,-14.74 3.09,-14.40 4.36,-13.99 5.64,-13.57 6.85,-12.90 8.05,-12.23 10.69,-11.40 13.33,-10.57 15.05,-9.45 16.77,-8.32 18.87,-6.98 20.98,-5.65 23.06,-3.92 25.14,-2.19 27.87,0.45 30.60,3.10 33.00,5.42 35.41,7.75 37.50,10.47 39.60,13.19 40.96,15.85 42.32,18.51 42.24,20.67 42.16,22.83 41.39,24.00 40.62,25.16 39.35,25.94 38.08,26.72 37.09,27.24 36.11,27.77 34.83,28.23 33.56,28.69 32.12,29.13 30.69,29.56 29.24,29.94 27.79,30.32 25.92,30.60 24.05,30.88 22.05,30.91 20.05,30.94 18.05,30.94 16.05,30.94 14.03,30.84 12.02,30.74 9.93,30.29 7.84,29.84 6.57,29.07 5.29,28.29 4.22,27.67 3.15,27.05 1.73,26.06 0.30,25.07 -0.33,24.03 -0.98,23.00 -1.78,21.45 -2.58,19.91 -2.95,18.55 -3.32,17.20 -3.54,15.55 -3.76,13.90 -3.76,11.79 -3.76,9.68 -3.68,7.35 -3.61,5.02 -3.23,3.37 -2.85,1.73 -2.51,0.59 -2.18,-0.54 -2.08,-0.79 -1.99,-1.05 -1.83,-1.27 -1.68,-1.49 -1.47,-1.67 -1.27,-1.85 -1.03,-1.98 -0.79,-2.10 -0.52,-2.17 -0.26,-2.23 0.00,-2.23 0.27,-2.23 0.54,-2.16 0.80,-2.10 1.04,-1.97 1.28,-1.84 1.48,-1.66 1.69,-1.48 1.84,-1.26 1.99,-1.03 2.09,-0.78 2.18,-0.53 2.21,-0.26 2.25,0.00 2.21,0.27 2.18,0.54 2.18,0.54 L 2.18,0.54 Z"></path></g><g transform="translate(351 203) rotate(0 12.5 41.5)" stroke="none" fill="#000000"><path d="M 1.63,0.90 Q 1.63,0.90 0.12,3.45 -1.37,6.00 -3.78,9.70 -6.18,13.40 -10.38,19.84 -14.57,26.28 -18.07,32.15 -21.57,38.01 -23.92,42.22 -26.28,46.43 -27.85,49.62 -29.42,52.82 -30.36,54.54 -31.31,56.26 -31.67,57.67 -32.03,59.07 -32.14,59.26 -32.25,59.46 -32.40,59.62 -32.55,59.78 -32.74,59.91 -32.92,60.03 -33.13,60.10 -33.34,60.17 -33.56,60.20 -33.79,60.22 -34.01,60.18 -34.23,60.15 -34.43,60.07 -34.64,59.98 -34.82,59.85 -35.00,59.72 -35.14,59.55 -35.29,59.38 -35.38,59.18 -35.48,58.98 -35.53,58.76 -35.58,58.55 -35.57,58.32 -35.57,58.10 -35.51,57.89 -35.45,57.67 -35.02,55.96 -34.59,54.25 -33.31,53.03 -32.04,51.81 -30.64,50.77 -29.24,49.73 -27.38,48.73 -25.53,47.74 -23.40,46.29 -21.26,44.85 -19.36,43.87 -17.45,42.88 -15.77,42.13 -14.09,41.38 -12.69,40.96 -11.30,40.54 -9.71,40.19 -8.12,39.84 -6.97,39.69 -5.82,39.55 -3.21,39.79 -0.61,40.04 1.54,40.94 3.70,41.83 5.75,42.85 7.80,43.86 9.27,44.51 10.73,45.15 11.96,45.68 13.18,46.21 14.31,46.71 15.44,47.21 16.52,48.19 17.60,49.17 20.86,51.82 24.12,54.46 26.12,56.22 28.11,57.99 31.87,61.70 35.64,65.40 38.87,68.08 42.10,70.76 44.89,72.77 47.67,74.77 49.72,76.22 51.77,77.67 53.23,78.48 54.68,79.30 55.71,79.92 56.73,80.55 57.79,81.26 58.85,81.98 59.07,81.86 59.29,81.73 59.55,81.83 59.80,81.92 60.03,82.08 60.25,82.24 60.43,82.44 60.61,82.65 60.74,82.89 60.87,83.14 60.93,83.40 60.99,83.67 60.99,83.94 60.99,84.22 60.92,84.48 60.86,84.75 60.73,84.99 60.60,85.23 60.42,85.43 60.23,85.64 60.01,85.79 59.78,85.95 59.53,86.04 59.27,86.14 59.00,86.17 58.73,86.20 58.45,86.17 58.18,86.13 57.40,84.23 56.61,82.32 54.88,79.59 53.15,76.86 50.70,73.18 48.25,69.50 45.51,65.61 42.77,61.72 39.93,58.37 37.10,55.03 34.47,52.15 31.84,49.28 29.29,46.61 26.75,43.95 24.21,41.05 21.67,38.16 19.76,36.09 17.84,34.02 16.44,32.58 15.03,31.13 14.02,29.93 13.00,28.72 11.56,27.06 10.13,25.41 9.51,24.43 8.89,23.46 8.16,22.66 7.43,21.87 6.45,20.13 5.48,18.39 4.82,16.04 4.15,13.70 3.57,12.30 2.98,10.90 2.42,9.39 1.85,7.89 0.98,6.30 0.10,4.71 -0.18,3.34 -0.46,1.97 0.87,1.74 2.21,1.52 1.91,1.83 1.61,2.14 1.22,2.34 0.84,2.55 0.41,2.61 -0.01,2.68 -0.44,2.61 -0.87,2.54 -1.25,2.33 -1.63,2.12 -1.93,1.81 -2.23,1.49 -2.41,1.09 -2.59,0.70 -2.63,0.27 -2.68,-0.16 -2.58,-0.58 -2.48,-1.00 -2.26,-1.38 -2.03,-1.75 -1.70,-2.03 -1.37,-2.30 -0.96,-2.46 -0.56,-2.62 -0.12,-2.64 0.30,-2.66 0.72,-2.54 1.14,-2.43 1.50,-2.18 1.85,-1.93 2.11,-1.59 2.38,-1.24 2.51,-0.83 2.65,-0.41 2.65,0.01 2.64,0.45 2.50,0.86 2.36,1.27 2.10,1.61 1.83,1.96 1.47,2.20 1.11,2.44 0.69,2.55 0.27,2.67 -0.16,2.64 -0.59,2.61 -0.99,2.45 -1.39,2.29 -1.72,2.00 -2.05,1.72 -2.27,1.35 -2.50,0.97 -2.59,0.55 -2.68,0.12 -2.63,-0.30 -2.58,-0.73 -2.39,-1.12 -2.21,-1.52 -2.21,-1.52 -2.21,-1.52 1.18,0.03 4.58,1.59 4.63,2.94 4.67,4.29 5.19,5.40 5.71,6.50 6.21,7.97 6.71,9.44 7.27,10.98 7.84,12.51 8.53,14.37 9.22,16.24 10.07,17.63 10.93,19.03 11.79,20.20 12.66,21.38 13.52,23.19 14.38,25.00 14.99,25.90 15.60,26.80 16.35,27.98 17.09,29.16 18.49,30.64 19.88,32.11 21.84,34.19 23.81,36.27 26.33,39.08 28.86,41.90 31.47,44.54 34.07,47.19 36.80,50.05 39.53,52.91 42.54,56.30 45.55,59.69 48.44,63.52 51.33,67.35 54.01,71.02 56.70,74.69 57.99,78.21 59.29,81.73 59.55,81.83 59.80,81.92 60.03,82.08 60.25,82.24 60.43,82.44 60.61,82.65 60.74,82.89 60.87,83.14 60.93,83.40 60.99,83.67 60.99,83.94 60.99,84.22 60.92,84.48 60.86,84.75 60.73,84.99 60.60,85.23 60.42,85.43 60.24,85.64 60.01,85.79 59.78,85.95 59.53,86.04 59.27,86.14 59.00,86.17 58.73,86.20 58.45,86.17 58.18,86.13 57.24,85.71 56.29,85.29 55.44,84.38 54.58,83.47 53.79,82.76 53.00,82.04 51.54,81.08 50.09,80.11 47.99,78.71 45.89,77.30 42.97,75.30 40.05,73.30 36.64,70.62 33.22,67.94 29.45,64.45 25.69,60.95 23.49,59.30 21.28,57.64 19.19,55.92 17.10,54.19 15.23,52.71 13.36,51.22 12.33,50.66 11.31,50.11 10.16,49.50 9.02,48.89 7.62,48.22 6.21,47.55 4.23,46.82 2.24,46.10 0.30,45.60 -1.62,45.10 -3.45,44.81 -5.28,44.52 -6.52,44.41 -7.75,44.31 -9.09,44.31 -10.42,44.32 -11.56,44.49 -12.69,44.66 -14.25,45.30 -15.81,45.93 -17.47,46.86 -19.13,47.79 -21.33,49.49 -23.53,51.19 -25.11,52.18 -26.69,53.17 -27.95,54.11 -29.21,55.04 -30.15,55.76 -31.08,56.47 -31.56,57.77 -32.03,59.07 -32.14,59.26 -32.25,59.46 -32.40,59.62 -32.55,59.78 -32.74,59.91 -32.92,60.03 -33.13,60.10 -33.34,60.17 -33.56,60.20 -33.79,60.22 -34.01,60.18 -34.23,60.15 -34.43,60.07 -34.64,59.98 -34.82,59.85 -35.00,59.72 -35.14,59.55 -35.29,59.38 -35.38,59.18 -35.48,58.98 -35.53,58.76 -35.58,58.55 -35.57,58.32 -35.57,58.10 -35.51,57.89 -35.45,57.67 -35.21,57.28 -34.97,56.88 -34.41,55.84 -33.85,54.81 -32.89,53.20 -31.93,51.60 -30.35,48.32 -28.77,45.04 -26.44,40.78 -24.10,36.52 -20.62,30.57 -17.14,24.63 -13.02,18.16 -8.90,11.68 -6.64,8.01 -4.37,4.34 -3.00,1.71 -1.63,-0.90 -1.49,-1.08 -1.36,-1.26 -1.19,-1.41 -1.02,-1.56 -0.82,-1.65 -0.61,-1.75 -0.40,-1.80 -0.18,-1.85 0.04,-1.85 0.26,-1.84 0.48,-1.78 0.70,-1.72 0.89,-1.61 1.09,-1.50 1.26,-1.35 1.42,-1.20 1.54,-1.01 1.67,-0.82 1.74,-0.61 1.82,-0.40 1.84,-0.17 1.86,0.04 1.83,0.26 1.80,0.48 1.71,0.69 1.63,0.90 1.63,0.90 L 1.63,0.90 Z"></path></g><g transform="translate(349 245) rotate(0 -0.5 17)" stroke="none" fill="#000000"><path d="M 2.12,0.30 Q 2.12,0.30 1.75,2.30 1.38,4.30 1.18,7.35 0.98,10.40 0.86,13.45 0.74,16.49 0.67,18.94 0.60,21.38 0.66,23.00 0.71,24.61 0.77,26.16 0.83,27.71 0.99,29.34 1.16,30.98 1.18,32.49 1.21,34.00 1.15,34.35 1.09,34.70 0.92,35.02 0.75,35.33 0.50,35.58 0.24,35.83 -0.08,35.98 -0.40,36.13 -0.76,36.16 -1.12,36.20 -1.46,36.13 -1.81,36.05 -2.12,35.86 -2.43,35.68 -2.66,35.41 -2.89,35.13 -3.02,34.80 -3.15,34.47 -3.17,34.11 -3.19,33.76 -3.10,33.41 -3.00,33.07 -2.80,32.77 -2.60,32.47 -2.31,32.26 -2.03,32.04 -1.69,31.93 -1.35,31.81 -0.99,31.81 -0.64,31.81 -0.30,31.93 0.03,32.04 0.32,32.26 0.60,32.48 0.80,32.77 1.00,33.07 1.10,33.41 1.19,33.76 1.17,34.11 1.15,34.47 1.02,34.80 0.89,35.14 0.66,35.41 0.43,35.68 0.12,35.87 -0.18,36.05 -0.53,36.13 -0.88,36.20 -1.23,36.16 -1.59,36.13 -1.91,35.97 -2.24,35.82 -2.50,35.58 -2.76,35.33 -2.92,35.02 -3.09,34.70 -3.15,34.35 -3.21,33.99 -3.21,33.99 -3.21,33.99 -3.18,32.48 -3.15,30.97 -2.98,29.34 -2.81,27.70 -2.75,26.15 -2.69,24.59 -2.61,22.97 -2.54,21.35 -2.56,18.89 -2.59,16.43 -2.60,13.35 -2.61,10.26 -2.57,7.00 -2.53,3.74 -2.33,1.72 -2.12,-0.30 -2.06,-0.55 -1.99,-0.80 -1.86,-1.03 -1.74,-1.25 -1.56,-1.44 -1.39,-1.63 -1.17,-1.78 -0.95,-1.92 -0.71,-2.01 -0.47,-2.09 -0.21,-2.12 0.04,-2.15 0.30,-2.11 0.55,-2.07 0.79,-1.98 1.03,-1.88 1.24,-1.73 1.46,-1.57 1.62,-1.38 1.79,-1.18 1.91,-0.95 2.02,-0.72 2.08,-0.46 2.14,-0.21 2.13,0.04 2.12,0.30 2.12,0.30 L 2.12,0.30 Z"></path></g><g transform="translate(357 248) rotate(0 6.5 15)" stroke="none" fill="#000000"><path d="M 2.30,-0.98 Q 2.30,-0.98 3.02,1.08 3.74,3.15 4.39,4.56 5.03,5.96 6.09,7.24 7.15,8.52 7.81,10.50 8.47,12.48 8.62,13.77 8.76,15.07 9.83,16.20 10.89,17.32 11.44,18.72 11.99,20.11 13.27,22.05 14.55,24.00 15.24,26.96 15.94,29.92 15.87,30.39 15.81,30.86 15.60,31.29 15.38,31.72 15.05,32.05 14.71,32.39 14.28,32.60 13.86,32.81 13.38,32.87 12.91,32.94 12.44,32.85 11.98,32.76 11.56,32.52 11.15,32.29 10.83,31.93 10.51,31.58 10.32,31.14 10.14,30.70 10.10,30.23 10.06,29.75 10.18,29.29 10.29,28.83 10.55,28.43 10.81,28.03 11.18,27.73 11.55,27.43 12.00,27.27 12.44,27.10 12.92,27.09 13.40,27.08 13.85,27.22 14.31,27.36 14.69,27.64 15.08,27.92 15.36,28.30 15.63,28.69 15.77,29.15 15.91,29.60 15.90,30.08 15.89,30.55 15.72,31.00 15.56,31.45 15.26,31.82 14.96,32.19 14.56,32.45 14.15,32.70 13.69,32.82 13.23,32.93 12.75,32.89 12.28,32.85 11.84,32.66 11.41,32.47 11.05,32.15 10.70,31.84 10.46,31.42 10.23,31.01 10.14,30.54 10.05,30.07 10.05,30.07 10.05,30.07 9.83,28.50 9.61,26.93 9.06,26.00 8.50,25.08 7.53,23.71 6.57,22.35 6.15,21.34 5.74,20.34 4.91,19.05 4.08,17.76 3.64,16.11 3.20,14.46 3.25,13.26 3.29,12.06 2.74,10.99 2.19,9.91 1.61,8.86 1.02,7.80 0.36,6.34 -0.29,4.89 -1.29,2.93 -2.30,0.98 -2.38,0.69 -2.47,0.40 -2.48,0.10 -2.49,-0.19 -2.43,-0.49 -2.37,-0.78 -2.24,-1.06 -2.11,-1.33 -1.92,-1.56 -1.73,-1.80 -1.49,-1.98 -1.25,-2.16 -0.97,-2.28 -0.70,-2.40 -0.40,-2.45 -0.10,-2.50 0.19,-2.47 0.49,-2.45 0.78,-2.35 1.06,-2.26 1.32,-2.10 1.57,-1.94 1.78,-1.72 1.99,-1.50 2.14,-1.24 2.30,-0.98 2.30,-0.98 L 2.30,-0.98 Z"></path></g><g transform="translate(346 183) rotate(0 0.00004999999998744897 0.00004999999998744897)" stroke="none" fill="#000000"><path d="M 1.57,-1.57 Q 1.57,-1.57 1.77,-1.27 1.98,-0.98 2.09,-0.64 2.20,-0.29 2.19,0.05 2.18,0.41 2.05,0.75 1.93,1.09 1.70,1.37 1.48,1.65 1.18,1.84 0.87,2.04 0.52,2.12 0.18,2.21 -0.17,2.18 -0.53,2.15 -0.86,2.01 -1.19,1.87 -1.46,1.63 -1.73,1.39 -1.90,1.07 -2.08,0.76 -2.15,0.41 -2.21,0.05 -2.17,-0.29 -2.12,-0.65 -1.96,-0.97 -1.80,-1.29 -1.54,-1.54 -1.29,-1.80 -0.97,-1.96 -0.65,-2.12 -0.29,-2.17 0.06,-2.21 0.41,-2.15 0.76,-2.08 1.07,-1.90 1.39,-1.73 1.63,-1.46 1.87,-1.19 2.01,-0.86 2.15,-0.53 2.18,-0.17 2.21,0.18 2.12,0.52 2.03,0.87 1.84,1.18 1.65,1.48 1.37,1.70 1.09,1.93 0.75,2.05 0.41,2.18 0.05,2.19 -0.30,2.20 -0.64,2.09 -0.98,1.98 -1.27,1.77 -1.57,1.56 -1.57,1.57 -1.57,1.57 -1.73,1.35 -1.90,1.14 -2.01,0.90 -2.12,0.66 -2.16,0.39 -2.21,0.13 -2.20,-0.13 -2.18,-0.40 -2.10,-0.65 -2.02,-0.91 -1.88,-1.14 -1.74,-1.36 -1.55,-1.55 -1.36,-1.74 -1.14,-1.88 -0.91,-2.02 -0.65,-2.10 -0.40,-2.18 -0.13,-2.20 0.13,-2.21 0.39,-2.16 0.66,-2.12 0.90,-2.01 1.14,-1.90 1.35,-1.73 1.57,-1.57 1.57,-1.57 L 1.57,-1.57 Z"></path></g><g transform="translate(339 176) rotate(0 0.00004999999998744897 0.00004999999998744897)" stroke="none" fill="#000000"><path d="M 1.57,-1.57 Q 1.57,-1.57 1.77,-1.27 1.98,-0.98 2.09,-0.64 2.20,-0.29 2.19,0.05 2.18,0.41 2.05,0.75 1.93,1.09 1.70,1.37 1.48,1.65 1.18,1.84 0.87,2.04 0.52,2.12 0.18,2.21 -0.17,2.18 -0.53,2.15 -0.86,2.01 -1.19,1.87 -1.46,1.63 -1.73,1.39 -1.90,1.07 -2.08,0.76 -2.15,0.41 -2.21,0.05 -2.17,-0.29 -2.12,-0.65 -1.96,-0.97 -1.80,-1.29 -1.54,-1.54 -1.29,-1.80 -0.97,-1.96 -0.65,-2.12 -0.29,-2.17 0.06,-2.21 0.41,-2.15 0.76,-2.08 1.07,-1.90 1.39,-1.73 1.63,-1.46 1.87,-1.19 2.01,-0.86 2.15,-0.53 2.18,-0.17 2.21,0.18 2.12,0.52 2.03,0.87 1.84,1.18 1.65,1.48 1.37,1.70 1.09,1.93 0.75,2.05 0.41,2.18 0.05,2.19 -0.30,2.20 -0.64,2.09 -0.98,1.98 -1.27,1.77 -1.57,1.56 -1.57,1.57 -1.57,1.57 -1.73,1.35 -1.90,1.14 -2.01,0.90 -2.12,0.66 -2.16,0.39 -2.21,0.13 -2.20,-0.13 -2.18,-0.40 -2.10,-0.65 -2.02,-0.91 -1.88,-1.14 -1.74,-1.36 -1.55,-1.55 -1.36,-1.74 -1.14,-1.88 -0.91,-2.02 -0.65,-2.10 -0.40,-2.18 -0.13,-2.20 0.13,-2.21 0.39,-2.16 0.66,-2.12 0.90,-2.01 1.14,-1.90 1.35,-1.73 1.57,-1.57 1.57,-1.57 L 1.57,-1.57 Z"></path></g><g transform="translate(337 185) rotate(0 1 0.5)" stroke="none" fill="#000000"><path d="M 1.04,-2.09 Q 1.04,-2.09 -0.02,0.05 -1.09,2.19 -1.42,1.96 -1.74,1.73 -1.97,1.40 -2.20,1.08 -2.31,0.70 -2.43,0.32 -2.42,-0.07 -2.41,-0.47 -2.27,-0.84 -2.13,-1.21 -1.88,-1.52 -1.63,-1.83 -1.29,-2.04 -0.96,-2.26 -0.57,-2.35 -0.19,-2.44 0.20,-2.41 0.60,-2.38 0.96,-2.22 1.33,-2.06 1.62,-1.79 1.92,-1.53 2.11,-1.18 2.30,-0.83 2.38,-0.44 2.45,-0.05 2.40,0.33 2.34,0.72 2.16,1.08 1.99,1.44 1.70,1.72 1.42,2.00 1.06,2.17 0.71,2.35 0.31,2.40 -0.07,2.45 -0.46,2.37 -0.85,2.30 -1.20,2.10 -1.54,1.90 -1.81,1.61 -2.07,1.31 -2.23,0.95 -2.38,0.58 -2.41,0.18 -2.44,-0.20 -2.35,-0.59 -2.25,-0.97 -2.03,-1.31 -1.82,-1.64 -1.51,-1.89 -1.20,-2.14 -0.82,-2.27 -0.45,-2.41 -0.05,-2.42 0.34,-2.43 0.71,-2.31 1.09,-2.19 1.09,-2.19 1.09,-2.19 0.02,-0.05 -1.04,2.09 -1.28,1.94 -1.51,1.78 -1.71,1.57 -1.90,1.36 -2.03,1.12 -2.17,0.87 -2.24,0.60 -2.32,0.32 -2.32,0.04 -2.33,-0.23 -2.26,-0.51 -2.20,-0.78 -2.08,-1.04 -1.95,-1.29 -1.77,-1.50 -1.58,-1.72 -1.35,-1.88 -1.12,-2.05 -0.86,-2.15 -0.60,-2.26 -0.32,-2.30 -0.04,-2.34 0.23,-2.31 0.51,-2.28 0.78,-2.19 1.04,-2.09 1.04,-2.09 L 1.04,-2.09 Z"></path></g><g transform="translate(335 119) rotate(0 64 -52)" stroke="none" fill="#000000"><path d="M -1.24,0.94 Q -1.24,0.94 -4.95,-3.95 -8.66,-8.86 -11.95,-13.26 -15.25,-17.65 -17.83,-21.88 -20.41,-26.11 -23.22,-30.76 -26.02,-35.42 -28.09,-39.45 -30.17,-43.48 -31.64,-47.56 -33.12,-51.64 -33.77,-56.05 -34.41,-60.47 -34.67,-64.93 -34.94,-69.40 -35.05,-72.44 -35.16,-75.48 -34.91,-78.29 -34.66,-81.11 -33.65,-83.61 -32.63,-86.11 -30.41,-88.96 -28.19,-91.81 -25.49,-94.47 -22.80,-97.12 -18.67,-99.47 -14.54,-101.82 -9.59,-103.68 -4.64,-105.54 2.15,-106.63 8.94,-107.73 14.69,-108.18 20.45,-108.64 25.49,-108.83 30.53,-109.02 35.31,-108.82 40.08,-108.61 45.55,-108.24 51.02,-107.86 56.02,-106.83 61.01,-105.79 64.85,-104.77 68.70,-103.76 72.06,-102.75 75.43,-101.74 78.53,-101.03 81.63,-100.33 84.73,-99.44 87.83,-98.56 90.66,-97.29 93.49,-96.02 95.81,-94.91 98.14,-93.81 100.59,-92.46 103.05,-91.11 105.53,-89.68 108.01,-88.24 110.24,-86.75 112.48,-85.26 114.33,-83.73 116.18,-82.20 118.70,-79.82 121.22,-77.43 123.40,-75.59 125.58,-73.75 127.40,-72.08 129.22,-70.41 130.82,-69.17 132.42,-67.94 133.97,-66.87 135.53,-65.81 136.86,-64.78 138.20,-63.76 139.57,-62.81 140.95,-61.86 142.02,-60.78 143.10,-59.71 144.25,-58.84 145.40,-57.97 147.15,-55.62 148.91,-53.26 151.36,-49.06 153.80,-44.86 155.42,-41.00 157.04,-37.15 158.25,-34.72 159.46,-32.30 160.32,-30.70 161.18,-29.10 161.90,-27.88 162.62,-26.65 163.23,-24.01 163.85,-21.37 163.93,-19.80 164.01,-18.22 163.40,-16.33 162.78,-14.44 160.57,-11.85 158.36,-9.27 155.06,-6.48 151.76,-3.70 147.34,-1.61 142.92,0.48 138.13,1.91 133.34,3.35 126.60,3.96 119.86,4.57 113.86,4.81 107.87,5.05 102.37,4.56 96.87,4.08 91.94,3.29 87.00,2.50 78.90,1.30 70.79,0.10 65.08,-0.40 59.37,-0.90 54.37,-1.12 49.37,-1.34 44.95,-1.43 40.53,-1.53 36.35,-1.57 32.17,-1.61 28.90,-1.92 25.63,-2.23 23.06,-2.65 20.50,-3.08 18.61,-3.21 16.72,-3.34 15.07,-3.34 13.41,-3.33 12.14,-3.26 10.86,-3.19 9.75,-3.11 8.63,-3.04 6.98,-2.89 5.32,-2.74 3.63,-2.57 1.94,-2.39 2.41,-3.51 2.88,-4.63 2.62,-2.23 2.36,0.16 2.28,0.54 2.19,0.91 1.98,1.24 1.78,1.56 1.48,1.81 1.19,2.05 0.83,2.19 0.47,2.32 0.08,2.34 -0.29,2.35 -0.66,2.24 -1.03,2.13 -1.34,1.91 -1.66,1.69 -1.88,1.38 -2.11,1.07 -2.23,0.71 -2.34,0.34 -2.34,-0.03 -2.33,-0.42 -2.20,-0.78 -2.07,-1.14 -1.84,-1.44 -1.60,-1.75 -1.28,-1.96 -0.96,-2.17 -0.59,-2.26 -0.21,-2.36 0.16,-2.33 0.54,-2.31 0.90,-2.16 1.25,-2.01 1.54,-1.76 1.83,-1.50 2.02,-1.17 2.22,-0.84 2.29,-0.46 2.37,-0.09 2.32,0.29 2.27,0.67 2.11,1.01 1.94,1.36 1.67,1.63 1.40,1.91 1.06,2.08 0.72,2.26 0.34,2.31 -0.03,2.37 -0.41,2.30 -0.79,2.23 -1.13,2.05 -1.46,1.86 -1.72,1.58 -1.98,1.30 -2.14,0.94 -2.29,0.59 -2.33,0.21 -2.36,-0.16 -2.36,-0.16 -2.36,-0.16 -2.27,-2.76 -2.18,-5.36 -0.67,-6.52 0.82,-7.68 2.02,-7.59 3.22,-7.50 4.28,-7.37 5.33,-7.24 7.01,-7.08 8.68,-6.91 9.81,-6.81 10.95,-6.70 12.25,-6.57 13.55,-6.43 15.27,-6.28 16.98,-6.13 18.96,-5.90 20.93,-5.68 23.40,-5.27 25.87,-4.86 29.04,-4.56 32.20,-4.26 36.39,-4.23 40.58,-4.19 45.04,-4.10 49.49,-4.01 54.55,-3.80 59.61,-3.59 65.40,-3.08 71.19,-2.58 79.31,-1.40 87.43,-0.21 92.27,0.53 97.11,1.29 102.43,1.73 107.74,2.18 113.67,1.90 119.59,1.62 126.01,1.01 132.44,0.40 136.98,-1.02 141.51,-2.45 145.50,-4.41 149.49,-6.36 152.46,-9.03 155.43,-11.71 157.14,-13.85 158.85,-15.98 159.34,-17.09 159.84,-18.20 159.82,-19.63 159.80,-21.06 159.64,-23.07 159.49,-25.07 158.93,-26.37 158.37,-27.67 157.59,-29.31 156.81,-30.94 155.50,-33.43 154.19,-35.92 152.58,-39.55 150.98,-43.18 148.55,-47.14 146.12,-51.09 144.53,-53.04 142.94,-54.99 141.62,-56.13 140.30,-57.27 139.62,-58.21 138.94,-59.15 137.54,-60.25 136.14,-61.34 135.00,-62.41 133.86,-63.49 132.31,-64.66 130.76,-65.83 129.10,-67.15 127.44,-68.47 125.66,-70.11 123.88,-71.75 121.65,-73.64 119.41,-75.53 116.96,-77.85 114.50,-80.18 112.76,-81.63 111.02,-83.08 108.85,-84.52 106.69,-85.97 104.24,-87.39 101.78,-88.81 99.40,-90.12 97.01,-91.44 94.71,-92.53 92.41,-93.62 89.76,-94.83 87.10,-96.03 84.08,-96.90 81.05,-97.77 77.86,-98.50 74.67,-99.22 71.35,-100.22 68.03,-101.22 64.25,-102.22 60.47,-103.22 55.66,-104.23 50.84,-105.24 45.40,-105.61 39.96,-105.99 35.30,-106.19 30.63,-106.40 25.65,-106.21 20.66,-106.02 15.00,-105.57 9.35,-105.13 2.81,-104.10 -3.72,-103.07 -8.49,-101.30 -13.26,-99.52 -17.11,-97.37 -20.97,-95.22 -23.54,-92.70 -26.12,-90.18 -28.16,-87.62 -30.21,-85.06 -31.12,-82.95 -32.04,-80.84 -32.27,-78.20 -32.50,-75.57 -32.39,-72.56 -32.28,-69.56 -32.02,-65.20 -31.76,-60.85 -31.17,-56.70 -30.58,-52.55 -29.16,-48.64 -27.74,-44.73 -25.70,-40.79 -23.66,-36.85 -20.83,-32.22 -18.01,-27.58 -15.48,-23.49 -12.94,-19.40 -9.61,-15.04 -6.28,-10.68 -2.52,-5.81 1.24,-0.94 1.33,-0.78 1.43,-0.62 1.48,-0.44 1.53,-0.26 1.54,-0.07 1.55,0.11 1.52,0.29 1.48,0.48 1.40,0.65 1.32,0.82 1.20,0.97 1.09,1.11 0.94,1.23 0.79,1.34 0.61,1.42 0.44,1.49 0.26,1.52 0.07,1.56 -0.11,1.54 -0.29,1.53 -0.47,1.47 -0.65,1.41 -0.81,1.31 -0.97,1.21 -1.10,1.08 -1.24,0.94 -1.24,0.94 L -1.24,0.94 Z"></path></g><g transform="translate(330 48) rotate(0 70 25)"><text x="0" y="18" font-family="Virgil, Segoe UI Emoji" font-size="20px" fill="#000000" text-anchor="start" style="white-space: pre;" direction="ltr">but how does </text><text x="0" y="43" font-family="Virgil, Segoe UI Emoji" font-size="20px" fill="#000000" text-anchor="start" style="white-space: pre;" direction="ltr">      it work?</text></g><g transform="translate(184 178) rotate(329.3227199782035 48.5 25.5)" stroke="none" fill="#000000"><path d="M -0.63,-1.42 Q -0.63,-1.42 1.96,-2.54 4.56,-3.66 9.40,-5.85 14.24,-8.04 18.87,-10.38 23.49,-12.73 27.74,-15.15 31.99,-17.58 35.79,-20.03 39.59,-22.48 42.98,-24.41 46.37,-26.34 50.42,-28.32 54.48,-30.30 57.69,-31.44 60.90,-32.59 63.18,-33.09 65.47,-33.59 67.62,-33.81 69.78,-34.03 71.26,-34.22 72.74,-34.42 74.04,-34.54 75.34,-34.66 77.15,-33.74 78.96,-32.82 80.81,-30.83 82.67,-28.84 85.18,-25.05 87.69,-21.27 89.60,-17.62 91.52,-13.98 92.90,-10.98 94.28,-7.98 95.18,-4.58 96.08,-1.19 97.02,4.28 97.97,9.75 98.65,14.37 99.33,18.99 99.90,21.77 100.46,24.56 100.99,27.19 101.52,29.83 101.76,32.76 101.99,35.68 102.16,37.48 102.32,39.28 102.47,40.63 102.62,41.97 102.73,43.13 102.85,44.28 102.94,45.35 103.03,46.41 103.09,47.73 103.15,49.05 103.13,50.76 103.12,52.47 102.72,55.59 102.32,58.70 102.19,60.54 102.05,62.38 101.32,64.77 100.58,67.17 100.06,68.77 99.53,70.37 99.05,71.67 98.58,72.96 98.11,74.12 97.65,75.28 96.05,77.07 94.46,78.85 92.52,80.19 90.57,81.54 87.93,82.69 85.29,83.84 82.32,84.33 79.35,84.82 76.05,84.99 72.75,85.17 64.50,82.02 56.26,78.88 51.34,76.07 46.43,73.27 42.83,69.99 39.22,66.71 36.88,64.48 34.53,62.26 32.92,60.40 31.30,58.55 30.02,56.89 28.74,55.24 27.05,52.79 25.36,50.34 24.05,48.12 22.74,45.90 21.59,43.48 20.45,41.06 19.40,38.91 18.36,36.76 17.34,34.70 16.32,32.64 15.51,31.23 14.71,29.81 14.02,28.67 13.34,27.52 12.72,26.49 12.10,25.45 11.34,24.61 10.58,23.77 9.42,22.14 8.25,20.50 7.38,19.22 6.50,17.94 4.97,16.77 3.44,15.60 1.97,14.40 0.49,13.20 -0.78,11.61 -2.07,10.03 -3.42,8.62 -4.78,7.21 -5.39,5.03 -6.00,2.84 -4.02,0.57 -2.05,-1.70 -1.72,-1.98 -1.40,-2.26 -1.00,-2.43 -0.60,-2.59 -0.17,-2.62 0.25,-2.65 0.67,-2.54 1.09,-2.43 1.45,-2.19 1.81,-1.95 2.07,-1.61 2.34,-1.27 2.48,-0.86 2.62,-0.46 2.63,-0.02 2.63,0.40 2.50,0.81 2.36,1.22 2.11,1.56 1.85,1.91 1.50,2.16 1.14,2.40 0.73,2.52 0.31,2.64 -0.11,2.62 -0.54,2.61 -0.94,2.45 -1.34,2.30 -1.68,2.02 -2.01,1.74 -2.24,1.38 -2.46,1.01 -2.56,0.59 -2.66,0.17 -2.61,-0.25 -2.57,-0.68 -2.40,-1.07 -2.22,-1.47 -1.93,-1.78 -1.63,-2.10 -1.25,-2.31 -0.87,-2.51 -0.45,-2.59 -0.02,-2.66 0.39,-2.60 0.82,-2.53 1.20,-2.33 1.59,-2.14 1.89,-1.83 2.19,-1.52 2.37,-1.13 2.56,-0.74 2.61,-0.31 2.66,0.11 2.57,0.53 2.48,0.96 2.26,1.33 2.05,1.70 2.05,1.70 2.05,1.70 0.96,3.18 -0.11,4.65 1.23,6.11 2.58,7.57 3.60,9.22 4.61,10.86 6.19,12.24 7.77,13.61 8.81,14.68 9.85,15.75 10.58,16.97 11.30,18.19 12.54,19.73 13.79,21.28 14.64,22.51 15.49,23.74 15.95,24.87 16.41,25.99 16.91,27.23 17.41,28.47 18.05,29.97 18.69,31.46 19.72,33.53 20.75,35.60 21.80,37.76 22.86,39.91 23.96,42.22 25.06,44.53 26.32,46.66 27.59,48.79 29.26,51.18 30.92,53.57 32.13,55.17 33.33,56.78 34.86,58.53 36.39,60.28 38.74,62.48 41.08,64.68 44.45,67.76 47.83,70.84 52.56,73.52 57.29,76.21 64.98,79.22 72.68,82.23 75.75,82.00 78.83,81.78 81.40,81.32 83.98,80.87 86.25,79.79 88.53,78.72 90.05,77.54 91.57,76.37 92.71,74.92 93.85,73.47 94.40,72.44 94.96,71.41 95.53,70.27 96.10,69.12 96.68,67.68 97.26,66.23 97.78,64.17 98.30,62.11 98.41,60.23 98.52,58.34 98.69,55.41 98.86,52.47 98.85,50.76 98.83,49.06 98.96,46.70 99.09,44.34 99.17,43.21 99.25,42.08 99.32,40.76 99.38,39.44 99.36,37.67 99.33,35.90 99.11,33.13 98.89,30.37 98.35,27.73 97.81,25.10 97.21,22.25 96.62,19.40 95.92,14.82 95.22,10.23 94.27,4.88 93.32,-0.45 92.47,-3.60 91.62,-6.74 90.22,-9.64 88.83,-12.54 86.93,-16.01 85.03,-19.48 82.61,-22.97 80.20,-26.47 78.59,-28.07 76.98,-29.67 76.05,-30.45 75.12,-31.22 74.02,-31.27 72.93,-31.31 71.49,-31.34 70.04,-31.36 68.03,-31.18 66.03,-30.99 63.91,-30.54 61.80,-30.08 58.72,-28.98 55.65,-27.89 51.68,-25.94 47.71,-23.99 44.39,-22.09 41.08,-20.19 37.22,-17.68 33.37,-15.18 29.07,-12.70 24.77,-10.23 20.11,-7.82 15.45,-5.41 10.61,-3.17 5.78,-0.93 3.20,0.24 0.63,1.42 0.45,1.48 0.27,1.53 0.08,1.54 -0.10,1.55 -0.28,1.52 -0.47,1.48 -0.64,1.41 -0.81,1.33 -0.96,1.21 -1.10,1.09 -1.22,0.95 -1.34,0.80 -1.41,0.62 -1.49,0.45 -1.52,0.27 -1.55,0.08 -1.54,-0.10 -1.53,-0.28 -1.47,-0.46 -1.42,-0.64 -1.32,-0.80 -1.22,-0.96 -1.09,-1.10 -0.95,-1.23 -0.79,-1.33 -0.63,-1.42 -0.63,-1.42 L -0.63,-1.42 Z"></path></g><g transform="translate(215 175) rotate(0 31 25)"><text x="0" y="18" font-family="Virgil, Segoe UI Emoji" font-size="20px" fill="#000000" text-anchor="start" style="white-space: pre;" direction="ltr">Uhm..</text><text x="0" y="43" font-family="Virgil, Segoe UI Emoji" font-size="20px" fill="#000000" text-anchor="start" style="white-space: pre;" direction="ltr">....ah...</text></g><g transform="translate(10 328.12027555704117) rotate(0 270 -16.5)" stroke="none" fill="#000000"><path d="M -0.12,-1.55 Q -0.12,-1.55 10.22,-2.38 20.57,-3.21 36.17,-4.70 51.78,-6.19 78.85,-7.97 105.92,-9.75 134.39,-11.07 162.86,-12.40 191.92,-13.53 220.99,-14.67 248.01,-15.43 275.03,-16.20 297.15,-16.52 319.28,-16.85 340.18,-17.27 361.07,-17.70 375.12,-18.16 389.17,-18.63 399.75,-18.83 410.34,-19.02 418.26,-19.39 426.19,-19.76 432.74,-19.92 439.30,-20.08 443.23,-20.15 447.16,-20.21 450.28,-20.24 453.39,-20.27 456.08,-20.56 458.78,-20.86 461.65,-21.27 464.53,-21.68 468.94,-22.15 473.36,-22.62 477.18,-23.38 481.00,-24.14 484.68,-24.76 488.36,-25.38 491.94,-25.93 495.52,-26.48 499.60,-27.29 503.67,-28.09 507.74,-28.72 511.81,-29.36 514.13,-29.63 516.45,-29.90 517.72,-30.14 518.99,-30.38 520.49,-30.65 521.99,-30.91 523.10,-31.06 524.20,-31.21 525.77,-32.23 527.34,-33.25 528.41,-34.03 529.49,-34.82 530.78,-35.17 532.08,-35.53 533.21,-35.65 534.33,-35.77 537.16,-35.88 539.99,-35.99 540.47,-35.92 540.94,-35.84 541.37,-35.61 541.80,-35.39 542.14,-35.04 542.47,-34.68 542.68,-34.25 542.88,-33.81 542.94,-33.32 542.99,-32.84 542.89,-32.37 542.78,-31.89 542.53,-31.48 542.29,-31.06 541.92,-30.75 541.55,-30.43 541.10,-30.25 540.65,-30.07 540.16,-30.04 539.68,-30.01 539.21,-30.14 538.74,-30.27 538.34,-30.54 537.94,-30.81 537.64,-31.20 537.35,-31.58 537.19,-32.04 537.04,-32.50 537.04,-32.99 537.03,-33.47 537.19,-33.93 537.34,-34.39 537.63,-34.78 537.93,-35.17 538.33,-35.44 538.73,-35.71 539.20,-35.84 539.66,-35.98 540.15,-35.95 540.63,-35.93 541.08,-35.75 541.53,-35.57 541.90,-35.26 542.28,-34.94 542.53,-34.53 542.78,-34.11 542.88,-33.64 542.99,-33.17 542.94,-32.68 542.89,-32.20 542.68,-31.76 542.48,-31.32 542.15,-30.97 541.82,-30.61 541.39,-30.38 540.96,-30.16 540.48,-30.08 540.00,-30.00 540.00,-30.00 540.00,-30.00 538.06,-29.99 536.11,-29.99 534.67,-29.95 533.23,-29.91 532.08,-29.57 530.92,-29.23 529.51,-28.43 528.09,-27.63 526.16,-27.20 524.23,-26.77 523.17,-26.89 522.12,-27.02 520.69,-27.14 519.27,-27.27 518.01,-27.28 516.76,-27.29 514.49,-27.03 512.22,-26.76 508.20,-26.14 504.18,-25.51 500.05,-24.70 495.92,-23.88 492.36,-23.34 488.80,-22.79 485.16,-22.18 481.52,-21.56 477.58,-20.78 473.64,-20.00 469.27,-19.54 464.90,-19.08 461.98,-18.66 459.06,-18.24 456.24,-17.94 453.41,-17.64 450.31,-17.61 447.21,-17.58 443.29,-17.51 439.36,-17.44 432.84,-17.28 426.31,-17.13 418.35,-16.75 410.39,-16.38 399.82,-16.18 389.26,-15.98 375.19,-15.50 361.13,-15.03 340.22,-14.60 319.32,-14.17 297.21,-13.84 275.10,-13.50 248.10,-12.72 221.09,-11.94 192.04,-10.79 162.99,-9.64 134.55,-8.29 106.11,-6.94 79.08,-5.13 52.06,-3.32 36.44,-1.77 20.82,-0.23 10.47,0.66 0.12,1.55 -0.05,1.54 -0.24,1.54 -0.42,1.49 -0.60,1.43 -0.77,1.34 -0.93,1.25 -1.07,1.12 -1.20,0.99 -1.30,0.83 -1.40,0.67 -1.46,0.49 -1.52,0.31 -1.54,0.12 -1.56,-0.05 -1.53,-0.24 -1.50,-0.43 -1.42,-0.60 -1.35,-0.77 -1.24,-0.92 -1.12,-1.07 -0.98,-1.19 -0.83,-1.31 -0.66,-1.39 -0.49,-1.48 -0.31,-1.51 -0.12,-1.55 -0.12,-1.55 L -0.12,-1.55 Z"></path></g><g transform="translate(332 161.12027555704117) rotate(0 17.5 11)" stroke="none" fill="#000000"><path d="M 0.91,-2.05 Q 0.91,-2.05 3.45,-0.79 5.98,0.46 7.97,1.64 9.96,2.82 11.38,3.52 12.80,4.22 13.83,4.81 14.87,5.41 15.80,6.40 16.74,7.39 18.10,8.21 19.46,9.02 20.98,10.30 22.50,11.58 23.69,12.66 24.87,13.74 25.83,14.36 26.80,14.97 27.79,16.04 28.78,17.10 29.91,17.63 31.03,18.16 33.37,18.73 35.70,19.30 36.12,19.48 36.53,19.67 36.86,19.97 37.19,20.28 37.41,20.67 37.62,21.07 37.70,21.51 37.78,21.96 37.72,22.40 37.65,22.85 37.44,23.25 37.24,23.65 36.91,23.97 36.59,24.28 36.19,24.48 35.78,24.67 35.33,24.73 34.88,24.78 34.44,24.69 34.00,24.60 33.61,24.37 33.22,24.15 32.92,23.81 32.63,23.47 32.45,23.05 32.28,22.63 32.25,22.18 32.22,21.73 32.33,21.30 32.45,20.86 32.70,20.48 32.94,20.11 33.30,19.83 33.65,19.55 34.08,19.40 34.51,19.25 34.96,19.24 35.41,19.24 35.84,19.38 36.27,19.51 36.63,19.78 36.99,20.05 37.25,20.42 37.51,20.79 37.64,21.22 37.76,21.66 37.74,22.11 37.73,22.56 37.56,22.98 37.40,23.40 37.12,23.75 36.83,24.10 36.45,24.33 36.06,24.57 35.62,24.67 35.18,24.78 34.74,24.73 34.29,24.69 34.29,24.69 34.29,24.69 32.44,24.08 30.59,23.47 28.89,22.76 27.18,22.05 25.62,20.46 24.06,18.86 22.90,18.01 21.75,17.17 20.65,16.16 19.55,15.16 18.40,14.23 17.26,13.31 15.27,11.73 13.29,10.15 12.16,8.87 11.03,7.59 9.63,6.81 8.23,6.02 6.29,5.07 4.36,4.13 1.72,3.09 -0.91,2.05 -1.14,1.91 -1.38,1.77 -1.57,1.58 -1.76,1.39 -1.90,1.16 -2.04,0.93 -2.13,0.67 -2.21,0.41 -2.23,0.14 -2.24,-0.12 -2.20,-0.39 -2.15,-0.66 -2.04,-0.90 -1.93,-1.15 -1.76,-1.37 -1.59,-1.58 -1.38,-1.75 -1.17,-1.92 -0.92,-2.03 -0.67,-2.14 -0.41,-2.19 -0.14,-2.24 0.12,-2.23 0.39,-2.21 0.65,-2.13 0.91,-2.05 0.91,-2.05 L 0.91,-2.05 Z"></path></g><g transform="translate(331 153.12027555704117) rotate(0 23.5 19)" stroke="none" fill="#000000"><path d="M -0.80,-2.40 Q -0.80,-2.40 0.94,-2.91 2.70,-3.41 4.49,-3.68 6.28,-3.95 7.35,-4.33 8.43,-4.71 9.71,-4.95 10.99,-5.20 12.48,-5.41 13.96,-5.61 15.08,-5.71 16.20,-5.80 17.72,-5.89 19.25,-5.98 21.04,-6.05 22.83,-6.11 24.00,-6.14 25.18,-6.18 27.01,-5.71 28.84,-5.24 30.16,-4.17 31.48,-3.10 32.29,-2.28 33.10,-1.45 34.23,-0.17 35.36,1.10 36.28,2.38 37.20,3.66 37.92,5.24 38.65,6.82 39.34,8.95 40.03,11.08 40.64,12.48 41.26,13.89 41.83,15.04 42.40,16.19 42.94,17.24 43.49,18.30 44.02,20.09 44.55,21.88 45.23,23.26 45.90,24.65 46.55,26.27 47.20,27.89 47.53,29.63 47.87,31.37 48.03,32.67 48.20,33.97 48.75,35.69 49.30,37.41 49.49,38.73 49.68,40.06 49.05,41.28 48.42,42.49 47.03,43.18 45.65,43.87 43.82,43.90 42.00,43.94 41.53,43.86 41.06,43.78 40.64,43.56 40.22,43.34 39.89,42.99 39.56,42.65 39.36,42.22 39.16,41.78 39.11,41.31 39.06,40.84 39.16,40.37 39.26,39.91 39.51,39.50 39.75,39.09 40.11,38.78 40.48,38.47 40.92,38.30 41.36,38.12 41.84,38.10 42.31,38.07 42.77,38.20 43.23,38.32 43.62,38.59 44.02,38.86 44.31,39.24 44.59,39.62 44.75,40.07 44.90,40.52 44.90,40.99 44.90,41.47 44.75,41.92 44.60,42.37 44.31,42.75 44.02,43.13 43.63,43.40 43.23,43.66 42.77,43.79 42.31,43.92 41.84,43.89 41.36,43.87 40.92,43.69 40.48,43.52 40.12,43.21 39.75,42.90 39.51,42.49 39.26,42.09 39.16,41.62 39.06,41.16 39.11,40.68 39.16,40.21 39.36,39.78 39.56,39.34 39.89,39.00 40.21,38.65 40.63,38.43 41.05,38.21 41.52,38.13 41.99,38.05 41.99,38.05 41.99,38.05 43.13,38.71 44.27,39.36 44.21,38.23 44.15,37.10 43.80,35.76 43.46,34.43 43.40,33.30 43.34,32.16 43.14,30.89 42.95,29.61 42.35,28.19 41.75,26.77 40.84,25.07 39.93,23.36 39.44,21.93 38.95,20.51 38.44,19.41 37.93,18.31 37.38,17.10 36.83,15.89 36.15,14.44 35.47,13.00 34.48,11.13 33.49,9.26 32.96,8.20 32.44,7.14 31.77,6.25 31.09,5.37 29.83,4.27 28.56,3.17 27.37,2.05 26.19,0.93 25.13,0.54 24.08,0.15 22.67,0.11 21.26,0.08 19.76,0.01 18.26,-0.06 16.75,-0.14 15.25,-0.23 14.18,-0.28 13.11,-0.32 11.48,-0.22 9.85,-0.13 8.42,0.27 6.99,0.67 5.59,0.89 4.19,1.11 2.50,1.76 0.80,2.40 0.50,2.47 0.20,2.53 -0.10,2.51 -0.40,2.50 -0.70,2.42 -0.99,2.33 -1.26,2.18 -1.52,2.02 -1.74,1.81 -1.96,1.60 -2.13,1.34 -2.29,1.08 -2.39,0.79 -2.48,0.50 -2.51,0.20 -2.53,-0.10 -2.48,-0.40 -2.43,-0.70 -2.31,-0.98 -2.19,-1.27 -2.01,-1.51 -1.83,-1.76 -1.59,-1.95 -1.35,-2.14 -1.07,-2.27 -0.80,-2.40 -0.80,-2.40 L -0.80,-2.40 Z"></path></g><g transform="translate(151 103.12027555704117) rotate(0 0.00004999999998744897 0.00004999999998744897)" stroke="none" fill="#000000"><path d="M 1.57,-1.57 Q 1.57,-1.57 1.77,-1.27 1.98,-0.98 2.09,-0.64 2.20,-0.29 2.19,0.05 2.18,0.41 2.05,0.75 1.93,1.09 1.70,1.37 1.48,1.65 1.18,1.84 0.87,2.04 0.52,2.12 0.18,2.21 -0.17,2.18 -0.53,2.15 -0.86,2.01 -1.19,1.87 -1.46,1.63 -1.73,1.39 -1.90,1.07 -2.08,0.76 -2.15,0.41 -2.21,0.05 -2.17,-0.29 -2.12,-0.65 -1.96,-0.97 -1.80,-1.29 -1.54,-1.54 -1.29,-1.80 -0.97,-1.96 -0.65,-2.12 -0.29,-2.17 0.06,-2.21 0.41,-2.15 0.76,-2.08 1.07,-1.90 1.39,-1.73 1.63,-1.46 1.87,-1.19 2.01,-0.86 2.15,-0.53 2.18,-0.17 2.21,0.18 2.12,0.52 2.03,0.87 1.84,1.18 1.65,1.48 1.37,1.70 1.09,1.93 0.75,2.05 0.41,2.18 0.05,2.19 -0.30,2.20 -0.64,2.09 -0.98,1.98 -1.27,1.77 -1.57,1.56 -1.57,1.57 -1.57,1.57 -1.73,1.35 -1.90,1.14 -2.01,0.90 -2.12,0.66 -2.16,0.39 -2.21,0.13 -2.20,-0.13 -2.18,-0.40 -2.10,-0.65 -2.02,-0.91 -1.88,-1.14 -1.74,-1.36 -1.55,-1.55 -1.36,-1.74 -1.14,-1.88 -0.91,-2.02 -0.65,-2.10 -0.40,-2.18 -0.13,-2.20 0.13,-2.21 0.39,-2.16 0.66,-2.12 0.90,-2.01 1.14,-1.90 1.35,-1.73 1.57,-1.57 1.57,-1.57 L 1.57,-1.57 Z"></path></g></svg>