<svg class="object-center object-cover bg-none w-full" version="1.1" xmlns="http://www.w3.org/2000/svg" viewBox="0 0 560.6780121771903 1078.2115633089666">
  <!-- svg-source:excalidraw -->
  
  <defs>
    <style>
      @font-face {
        font-family: "Virgil";
        src: url("https://excalidraw.com/Virgil.woff2");
      }
      @font-face {
        font-family: "Cascadia";
        src: url("https://excalidraw.com/Cascadia.woff2");
      }
    </style>
  </defs>
  <rect x="0" y="0" width="560.6780121771903" height="1078.2115633089666" fill="#f9fafb"></rect><g stroke-linecap="round" transform="translate(11.996532570355669 205.5134184956546) rotate(0 58.75 19.375)"><path d="M-1.56 -1.98 C46.97 -2.06, 90.72 0.5, 117.96 1.82 M-0.83 0.58 C40.06 1.04, 78.65 0.62, 116.53 0.51 M115.83 -0.94 C118.15 7.64, 119.14 16.56, 117.69 36.88 M117.37 -0.56 C118.17 14.93, 116.98 27.33, 117.45 39.63 M117.63 39.03 C74.17 38.38, 31.91 39.86, -1.16 37.8 M118.11 38.97 C74.99 37.39, 34.94 37.43, -0.24 38.83 M0.55 36.83 C0.34 30.98, -0.82 20.17, 1.43 0.52 M-0.15 38.08 C-0.22 30.53, 0.79 21.08, 0.65 -0.89" stroke="#000000" stroke-width="1" fill="none"></path></g><g transform="translate(23.24653257035567 212.3884184956546) rotate(0 38 10)"><text x="38" y="14" font-family="Virgil, Segoe UI Emoji" font-size="16px" fill="#000000" text-anchor="middle" style="white-space: pre;" direction="ltr">Interface</text></g><g stroke-linecap="round" transform="translate(176.50034287662157 115.01341849565506) rotate(0 39.49999999999997 43.625)"><path d="M3.2 -2.67 C28.56 4.02, 58.11 5.22, 80.43 -1.21 M1.22 1.55 C21.38 -0.22, 41.87 0.1, 77.19 -0.46 M80.48 -0.95 C81 35.33, 77.93 65.58, 81.54 87.08 M80.37 1.69 C77.77 27.32, 78.68 59.77, 80.19 86.43 M76.85 86.04 C51.53 89.2, 26.06 85.57, 2.17 87.68 M77.24 86.81 C64.38 87.24, 46.48 87.77, -1.24 87.42 M0.75 90.14 C-2.05 63.83, 2.39 42.06, -2.96 -3.65 M-1.15 88.32 C1.13 54.75, 1.55 21.12, -1.46 -0.55" stroke="#000000" stroke-width="2" fill="none"></path></g><g stroke-linecap="round"><g transform="translate(174.50034287662157 153.01341849565506) rotate(0 37.93473307125262 1.5097679112850528)"><path d="M2.24 -1.87 C15.25 -0.59, 63.48 3.62, 75.86 4.89 M0.01 3.29 C12.84 4.02, 61.1 1.09, 73.61 0.81" stroke="#000000" stroke-width="2" fill="none"></path></g></g><g transform="translate(190.50034287662157 124.01341849565506) rotate(0 23 10)"><text x="0" y="14" font-family="Virgil, Segoe UI Emoji" font-size="16px" fill="#000000" text-anchor="start" style="white-space: pre;" direction="ltr">_type</text></g><g transform="translate(196.00034287662157 164.51341849565506) rotate(0 20 10)"><text x="0" y="14" font-family="Virgil, Segoe UI Emoji" font-size="16px" fill="#000000" text-anchor="start" style="white-space: pre;" direction="ltr">data</text></g><g transform="translate(199.49653257035567 81.76341849565506) rotate(0 22 10)"><text x="0" y="14" font-family="Virgil, Segoe UI Emoji" font-size="16px" fill="#e67700" text-anchor="start" style="white-space: pre;" direction="ltr">eface</text></g><g stroke-linecap="round" transform="translate(186.7465325703559 244.15572574734642) rotate(0 39.50000000000003 43.625)"><path d="M3.65 1.43 C22.41 -1.27, 43.91 1.97, 81.44 3.1 M1.02 -1.81 C21.18 3.47, 41.61 0.58, 79.74 -0.48 M75.25 2.54 C79.12 35.01, 78.76 65.19, 81.74 90.64 M80.76 1.19 C76.71 22.2, 77.66 43.86, 77.92 86.64 M77.1 89.42 C60 82.44, 42.59 87.22, -3.52 86.37 M79.17 86.01 C49.91 86.17, 21.03 84.96, 0.38 88.7 M1.03 84.29 C-3.51 67.25, -0.45 39.06, -2.3 2.13 M-1.78 85.79 C-0.27 57.87, 1.68 29.11, -0.28 1.56" stroke="#000000" stroke-width="2" fill="none"></path></g><g stroke-linecap="round"><g transform="translate(184.7465325703559 282.1557257473464) rotate(0 42.019786683618975 2.510372585579944)"><path d="M2.55 1 C16.19 1.34, 70.29 2.01, 83.54 2.66 M0.5 -0.92 C13.53 -0.22, 66.32 5.74, 80.84 5.94" stroke="#000000" stroke-width="2" fill="none"></path></g></g><g transform="translate(211.7465325703559 253.15572574734642) rotate(0 14 10)"><text x="0" y="14" font-family="Virgil, Segoe UI Emoji" font-size="16px" fill="#000000" text-anchor="start" style="white-space: pre;" direction="ltr">tab</text></g><g transform="translate(204.2465325703559 294.6557257473464) rotate(0 20 10)"><text x="0" y="14" font-family="Virgil, Segoe UI Emoji" font-size="16px" fill="#000000" text-anchor="start" style="white-space: pre;" direction="ltr">data</text></g><g transform="translate(198.74272226408976 337.6557257473464) rotate(0 19.5 10)"><text x="0" y="14" font-family="Virgil, Segoe UI Emoji" font-size="16px" fill="#e67700" text-anchor="start" style="white-space: pre;" direction="ltr">iface</text></g><g stroke-linecap="round"><g transform="translate(126.92732196825324 212.2925567412326) rotate(0 19.656293505805195 -24.955610294708777)"><path d="M-1 0.7 C5.78 -7.42, 33.6 -40.61, 40.31 -48.98 M0.68 0.02 C7.4 -8.39, 33.47 -42.01, 39.75 -50.61" stroke="#000000" stroke-width="1" fill="none"></path></g><g transform="translate(126.92732196825324 212.2925567412326) rotate(0 19.656293505805195 -24.955610294708777)"><path d="M32.1 -20.72 C34.92 -30.12, 36.46 -39.26, 40.77 -52.42 M30.46 -21.57 C32.86 -28.95, 35.71 -37.67, 38.81 -49.98" stroke="#000000" stroke-width="1" fill="none"></path></g><g transform="translate(126.92732196825324 212.2925567412326) rotate(0 19.656293505805195 -24.955610294708777)"><path d="M15.73 -33.09 C22.94 -39.02, 28.89 -44.83, 40.77 -52.42 M14.09 -33.95 C21.15 -37.76, 28.53 -43.05, 38.81 -49.98" stroke="#000000" stroke-width="1" fill="none"></path></g></g><g stroke-linecap="round"><g transform="translate(120.51197428368465 245.74227668965477) rotate(0 26.766195577043987 23.180469101212793)"><path d="M0.7 0.73 C9.73 8.39, 45.14 37.69, 53.92 44.92 M-0.39 0.07 C8.59 7.99, 44.59 38.84, 53.46 46.29" stroke="#000000" stroke-width="1" fill="none"></path></g><g transform="translate(120.51197428368465 245.74227668965477) rotate(0 26.766195577043987 23.180469101212793)"><path d="M26.56 37.4 C32.53 39.28, 38.91 42.49, 51.65 45.83 M25.71 35.61 C37.29 40.29, 47.7 43.34, 54.1 46.25" stroke="#000000" stroke-width="1" fill="none"></path></g><g transform="translate(120.51197428368465 245.74227668965477) rotate(0 26.766195577043987 23.180469101212793)"><path d="M39.85 21.76 C42 28.06, 44.7 35.6, 51.65 45.83 M39 19.97 C45.17 30.81, 50.3 40.07, 54.1 46.25" stroke="#000000" stroke-width="1" fill="none"></path></g></g><g stroke-linecap="round" transform="translate(408.0839274979331 75.49452228844166) rotate(0 67.32317073170731 113.125)"><path d="M1.55 -0.52 C29.89 -2.75, 59.39 -2.63, 134.19 1.95 M-0.24 0.86 C29.35 -0.4, 57.43 0.14, 134.6 0.32 M136.1 -0.86 C132.12 64.83, 135.07 130.84, 133.94 226.6 M134.39 -0.46 C135.29 68.87, 134.51 139.2, 134.74 225.42 M134.21 227.66 C85.66 224.59, 37.55 223.82, 0.17 225.55 M135.37 225.86 C90.47 227.22, 46.72 225.76, -0.91 226.94 M0.91 227 C1.02 162.8, -0.22 95.87, -0.47 0.53 M0.67 226.25 C-1.52 142.62, -1.58 58.2, -0.24 -0.06" stroke="#000000" stroke-width="1" fill="none"></path></g><g stroke-linecap="round"><g transform="translate(410.3302409633305 116.48426002881251) rotate(0 62.543170195322546 -3.52526254876625)"><path d="M0.93 -0.31 C21.67 -1.56, 104.4 -5.68, 125.13 -6.74 M-0.04 -1.52 C20.51 -2.73, 103.58 -5.08, 124.4 -5.81" stroke="#000000" stroke-width="1" fill="none"></path></g></g><g stroke-linecap="round"><g transform="translate(410.2500834468795 155.1762101154527) rotate(0 63.99886089697395 -3.9414015675095015)"><path d="M-0.73 0.99 C19.62 -0.15, 103.01 -3.35, 123.79 -4.64 M4.07 -0.94 C25.08 -3.1, 107.84 -8.37, 128.73 -8.87" stroke="#000000" stroke-width="1" fill="none"></path></g></g><g stroke-linecap="round"><g transform="translate(412.7626750941452 195.99731507880233) rotate(0 62.31338758800905 -3.2445776208121515)"><path d="M0.99 -2.7 C21.72 -4, 105.96 -8.4, 126.55 -8.49 M-1.92 2 C18.37 1.03, 104.37 -4.69, 125.08 -6.24" stroke="#000000" stroke-width="1" fill="none"></path></g></g><g stroke-linecap="round"><g transform="translate(411.4368101358701 234.51876115660843) rotate(0 64.36277293774685 0.2697387753835301)"><path d="M-2.7 1.43 C18.49 1.03, 104.01 -0.62, 126.4 -1.37 M1.02 -0.27 C23.12 -0.33, 109.71 2.07, 131.43 1.91" stroke="#000000" stroke-width="1" fill="none"></path></g></g><g transform="translate(444.50465920524954 81.89574180063664) rotate(0 38 10)"><text x="0" y="14" font-family="Virgil, Segoe UI Emoji" font-size="16px" fill="#000000" text-anchor="start" style="white-space: pre;" direction="ltr">arraytype</text></g><g transform="translate(455.5412445711041 120.52379058112456) rotate(0 7.5 11.5)"><text x="0" y="16" font-family="Virgil, Segoe UI Emoji" font-size="17.65853658536585px" fill="#000000" text-anchor="start" style="white-space: pre;" direction="ltr">...</text></g><g transform="translate(421.73331774183504 161.57988814210012) rotate(0 42 10)"><text x="42" y="14" font-family="Virgil, Segoe UI Emoji" font-size="16px" fill="#000000" text-anchor="middle" style="white-space: pre;" direction="ltr">structtype</text></g><g transform="translate(418.0168543272019 203.29818082502698) rotate(0 52 10)"><text x="0" y="14" font-family="Virgil, Segoe UI Emoji" font-size="16px" fill="#000000" text-anchor="start" style="white-space: pre;" direction="ltr">interfacetype</text></g><g transform="translate(466.57782993695724 240.8225710689294) rotate(0 7.063414634146341 11.036585365853625)"><text x="0" y="15.073170731707318" font-family="Virgil, Segoe UI Emoji" font-size="17.65853658536585px" fill="#000000" text-anchor="start" style="white-space: pre;" direction="ltr">...</text></g><g stroke-linecap="round"><g transform="translate(410.74653257035567 263.13765842393786) rotate(0 65.22561788147357 1.8783124288418094)"><path d="M-1.32 1.04 C20.19 2.2, 109.4 4.39, 131.77 4.63 M3.16 -0.87 C23.99 -0.24, 107.81 -0.17, 129.17 0.93" stroke="#000000" stroke-width="1" fill="none"></path></g></g><g transform="translate(467.6814884735432 270.5609879943654) rotate(0 7.063414634146341 11.036585365853625)"><text x="0" y="15.073170731707318" font-family="Virgil, Segoe UI Emoji" font-size="17.65853658536585px" fill="#000000" text-anchor="start" style="white-space: pre;" direction="ltr">...</text></g><g transform="translate(424.91050979101016 35.09853346645832) rotate(0 42 10)"><text x="0" y="14" font-family="Virgil, Segoe UI Emoji" font-size="16px" fill="#e67700" text-anchor="start" style="white-space: pre;" direction="ltr">_type list:</text></g><g stroke-linecap="round"><g transform="translate(217.61160837626863 69.25) rotate(0 0.83079759041496 -17.46272836364801)"><path d="M1.04 0.2 C1.22 -5.61, 1.35 -29.42, 1.54 -35.12 M0.12 -0.74 C0.12 -6.42, 0.37 -28.84, 0.65 -34.18" stroke="#000000" stroke-width="1" fill="none"></path></g><g transform="translate(217.61160837626863 69.25) rotate(0 0.83079759041496 -17.46272836364801)"><path d="M6.3 -17.87 C2.65 -22.34, 2.37 -28.31, 0.43 -35.13 M5.3 -18.07 C4.65 -23.5, 1.58 -29.78, 0.71 -34.06" stroke="#000000" stroke-width="1" fill="none"></path></g><g transform="translate(217.61160837626863 69.25) rotate(0 0.83079759041496 -17.46272836364801)"><path d="M-5.33 -18.19 C-5.06 -22.66, -1.43 -28.52, 0.43 -35.13 M-6.33 -18.4 C-2.69 -23.65, -1.48 -29.81, 0.71 -34.06" stroke="#000000" stroke-width="1" fill="none"></path></g></g><g transform="translate(158.3214576950009 10) rotate(0 61 10)"><text x="0" y="14" font-family="Virgil, Segoe UI Emoji" font-size="16px" fill="#000000" text-anchor="start" style="white-space: pre;" direction="ltr">empty interface</text></g><g transform="translate(124.6862414588864 400.4916718602176) rotate(0 90 10)"><text x="0" y="14" font-family="Virgil, Segoe UI Emoji" font-size="16px" fill="#000000" text-anchor="start" style="white-space: pre;" direction="ltr">interface with methods</text></g><g stroke-linecap="round"><g transform="translate(219.16015235786205 366.0156434132382) rotate(0 -1.3595257858978869 14.11615085360404)"><path d="M-1.12 0.76 C-1.53 5.43, -2.03 23.73, -2.23 28.12 M0.49 0.12 C-0.1 4.4, -2.59 21.55, -3.21 26.2" stroke="#000000" stroke-width="1" fill="none"></path></g><g transform="translate(219.16015235786205 366.0156434132382) rotate(0 -1.3595257858978869 14.11615085360404)"><path d="M-5.23 12.54 C-4.73 16.75, -5.04 22.19, -2.03 25.5 M-5.7 12.31 C-5.35 15.55, -4.77 18.07, -3.42 25.82" stroke="#000000" stroke-width="1" fill="none"></path></g><g transform="translate(219.16015235786205 366.0156434132382) rotate(0 -1.3595257858978869 14.11615085360404)"><path d="M4.19 13.85 C1.71 17.56, -1.58 22.58, -2.03 25.5 M3.72 13.63 C2.04 16.66, 0.59 18.9, -3.42 25.82" stroke="#000000" stroke-width="1" fill="none"></path></g></g><g stroke-linecap="round" transform="translate(304.587957765692 66.65232475101948) rotate(0 32 43.625)"><path d="M-0.17 1.3 C19.29 -3.05, 42.37 2.58, 61.99 -3.37 M-0.82 0.41 C19.04 -0.48, 36.74 -1.37, 62.92 0.87 M64.43 -3.89 C65.62 21.99, 59.66 41.33, 66.81 86.53 M64.17 -0.7 C64.7 22.19, 64.52 49.66, 63.22 87.1 M60.35 90 C39.62 83.61, 14.11 88.43, 1.75 86.59 M63.45 87.87 C42.04 88.17, 17 87.87, -0.01 87.92 M-1.11 86.97 C-1.34 63.42, -1.79 35.31, 0.78 1.96 M-1.85 85.5 C3.04 61.16, 1.44 34.73, 0.77 -0.32" stroke="#000000" stroke-width="2" fill="none"></path></g><g stroke-linecap="round"><g transform="translate(298.949884505355 108.51387421026811) rotate(0 31.020341515391976 -0.7757640238107797)"><path d="M-0.12 0.91 C11.26 0.2, 54.32 -2.56, 65.67 -2.46 M-3.63 -1.07 C7.58 -1.59, 51.43 0.6, 63.23 0.32" stroke="#000000" stroke-width="2" fill="none"></path></g></g><g transform="translate(314.587957765692 78.65232475101948) rotate(0 14 10)"><text x="0" y="14" font-family="Virgil, Segoe UI Emoji" font-size="16px" fill="#000000" text-anchor="start" style="white-space: pre;" direction="ltr">kind</text></g><g transform="translate(320.087957765692 117.15232475101948) rotate(0 8 12.5)"><text x="0" y="18" font-family="Virgil, Segoe UI Emoji" font-size="20px" fill="#000000" text-anchor="start" style="white-space: pre;" direction="ltr">...</text></g><g transform="translate(299.5841474594261 34.40232475101948) rotate(0 23 10)"><text x="0" y="14" font-family="Virgil, Segoe UI Emoji" font-size="16px" fill="#e67700" text-anchor="start" style="white-space: pre;" direction="ltr">_type</text></g><g stroke-linecap="round"><g transform="translate(257.087957765692 134.2155590979969) rotate(0 16.54249591704462 -11.005312125234923)"><path d="M0.82 1.02 C6 -2.71, 25.79 -19.37, 30.9 -23.03 M-0.21 0.51 C5.38 -3.05, 28.15 -18.15, 33.29 -22.02" stroke="#000000" stroke-width="1" fill="none"></path></g><g transform="translate(257.087957765692 134.2155590979969) rotate(0 16.54249591704462 -11.005312125234923)"><path d="M23.88 -7.26 C23.89 -10.97, 30.37 -14.25, 32.5 -21.63 M21.96 -6.81 C26.03 -11.61, 28.55 -15.35, 33.39 -22.95" stroke="#000000" stroke-width="1" fill="none"></path></g><g transform="translate(257.087957765692 134.2155590979969) rotate(0 16.54249591704462 -11.005312125234923)"><path d="M16.35 -18.03 C18.46 -18.7, 27.1 -18.89, 32.5 -21.63 M14.43 -17.58 C20.83 -19.04, 25.65 -19.48, 33.39 -22.95" stroke="#000000" stroke-width="1" fill="none"></path></g></g><g stroke-linecap="round"><g transform="translate(378.087957765692 112.41755402657873) rotate(0 14.130908909495929 5.4450630314713635)"><path d="M1.02 -0.6 C5.46 0.92, 21.48 8.09, 25.99 9.98 M0.09 1.69 C4.96 3.35, 23.54 10.31, 28.17 11.49" stroke="#000000" stroke-width="1" fill="none"></path></g><g transform="translate(378.087957765692 112.41755402657873) rotate(0 14.130908909495929 5.4450630314713635)"><path d="M13.05 10.8 C17.22 13.03, 21.65 11.05, 28.46 11.59 M13.39 12.33 C17.88 11.55, 23.21 11.81, 27.47 11.93" stroke="#000000" stroke-width="1" fill="none"></path></g><g transform="translate(378.087957765692 112.41755402657873) rotate(0 14.130908909495929 5.4450630314713635)"><path d="M16.09 1.43 C19.58 5.97, 23.27 6.27, 28.46 11.59 M16.42 2.95 C19.91 5.11, 24.29 8.31, 27.47 11.93" stroke="#000000" stroke-width="1" fill="none"></path></g></g><g stroke-linecap="round"><g transform="translate(260.25728174650027 178.6750687990284) rotate(0 14.170858770236379 8.341772531083961)"><path d="M-0.6 -1.01 C4.08 1.77, 23.89 14.84, 28.94 17.69 M1.28 1.07 C5.73 4.06, 23.29 13.44, 27.97 16.13" stroke="#000000" stroke-width="1" fill="none"></path></g><g transform="translate(260.25728174650027 178.6750687990284) rotate(0 14.170858770236379 8.341772531083961)"><path d="M10.05 13.43 C19.04 15.55, 22.96 15.86, 28.08 16.36 M11.82 13.02 C15.12 14.7, 19.67 14.08, 28.48 16.31" stroke="#000000" stroke-width="1" fill="none"></path></g><g transform="translate(260.25728174650027 178.6750687990284) rotate(0 14.170858770236379 8.341772531083961)"><path d="M15.59 3.43 C22.62 9.21, 24.5 13.2, 28.08 16.36 M17.37 3.02 C19.27 7.13, 22.45 8.97, 28.48 16.31" stroke="#000000" stroke-width="1" fill="none"></path></g></g><g transform="translate(301.25728174650027 183.6466785222292) rotate(0 39 20)"><text x="0" y="14" font-family="Virgil, Segoe UI Emoji" font-size="16px" fill="#000000" text-anchor="start" style="white-space: pre;" direction="ltr">Ptr to </text><text x="0" y="34" font-family="Virgil, Segoe UI Emoji" font-size="16px" fill="#000000" text-anchor="start" style="white-space: pre;" direction="ltr">real data</text></g><g stroke-linecap="round" transform="translate(14.839548220983545 612.2014082554779) rotate(0 43.00417444303568 55.700644992884236)"><path d="M0.34 -2.49 C32.2 -1, 64.81 -3.43, 86.76 2.89 M0.52 -1.48 C20.6 0.14, 44.56 -2.58, 84.86 1.07 M82.45 -2.92 C84.54 39.54, 88.43 80.33, 85.44 114.51 M86.52 -1.74 C86.2 33.23, 86.31 68.02, 85.34 111.81 M83.62 108.19 C54.83 108.01, 35.06 112.69, 0.79 113.1 M85.68 111.16 C56.9 112.41, 28.94 111.02, -0.47 109.9 M0.3 109.27 C-1.84 77.34, 5.33 39.93, -1.7 0.57 M-0.19 111.1 C0.07 67.01, 0.78 24.4, -0.46 -0.62" stroke="#000000" stroke-width="2" fill="none"></path></g><g stroke-linecap="round"><g transform="translate(13.082484209835513 643.5245476280224) rotate(0 41.785702274088834 1.229470429417006)"><path d="M0.23 -1.74 C14.76 -1.48, 72.16 0.73, 86.65 0.88 M-3.08 3.48 C11.14 4.2, 69.73 4.42, 84.55 3.98" stroke="#000000" stroke-width="2" fill="none"></path></g></g><g stroke-linecap="round"><g transform="translate(15.212427060069274 683.914793835127) rotate(0 41.84369437492758 0.6213371876056044)"><path d="M-1.74 0.24 C12.61 0.79, 71.18 3.04, 85.43 3.55 M2.51 -2.1 C16.46 -2.45, 68.23 -2.51, 82.66 -1.05" stroke="#000000" stroke-width="2" fill="none"></path></g></g><g transform="translate(26.307328072458915 619.5735524457164) rotate(0 18.430360475586696 10.239089153103805)"><text x="0" y="14.478178306207447" font-family="Virgil, Segoe UI Emoji" font-size="16.38254264496595px" fill="#000000" text-anchor="start" style="white-space: pre;" direction="ltr">inter</text></g><g transform="translate(22.621255977342514 652.7482013017702) rotate(0 16.7921062110901 10.239089153103805)"><text x="0" y="14.478178306207447" font-family="Virgil, Segoe UI Emoji" font-size="16.382542644965948px" fill="#000000" text-anchor="start" style="white-space: pre;" direction="ltr">type</text></g><g transform="translate(24.669073807963002 692.8854307819365) rotate(0 26.212068231945523 10.239089153103805)"><text x="0" y="14.478178306207447" font-family="Virgil, Segoe UI Emoji" font-size="16.382542644965962px" fill="#000000" text-anchor="start" style="white-space: pre;" direction="ltr">fun[0]</text></g><g transform="translate(36.136853659439396 578.6575330164765) rotate(0 15.972979078841831 10.239089153103805)"><text x="0" y="14.478178306207447" font-family="Virgil, Segoe UI Emoji" font-size="16.382542644965962px" fill="#e67700" text-anchor="start" style="white-space: pre;" direction="ltr">itab</text></g><g stroke-linecap="round" transform="translate(191.453420616139 526.5432399124529) rotate(0 49.55719150102203 67.98755197660876)"><path d="M2.89 -1.57 C32.15 2.5, 65.95 -3.34, 95.47 2.75 M1.07 0.88 C27.96 2.44, 54.79 -0.32, 98.56 0.62 M102.23 -0.02 C102.98 50.37, 102.67 97.06, 98.01 135.69 M99.52 0.39 C101.82 37.87, 99.65 73.89, 97.26 134.23 M100.82 137.51 C58.86 136.76, 19.22 135.89, -0.01 137.66 M97.61 136.28 C61.94 135.45, 28.6 134.44, -1.95 136.51 M0.57 139.26 C-1.69 86.64, 0.43 31.53, -2.66 -3.62 M-0.62 136.93 C2.76 97.72, 2.73 60.85, 0.04 -1.2" stroke="#000000" stroke-width="1" fill="none"></path></g><g transform="translate(192.68211131450943 490.62915525840435) rotate(0 53.5 10.5)"><text x="0" y="15" font-family="Virgil, Segoe UI Emoji" font-size="16.38254264496597px" fill="#e67700" text-anchor="start" style="white-space: pre;" direction="ltr">interfacetype</text></g><g stroke-linecap="round"><g transform="translate(193.4207600470374 569.635923560636) rotate(0 48.75282582172193 -0.0723340024026129)"><path d="M-1.1 -0.22 C15.25 -0.06, 82.67 2.98, 98.6 2.96 M3.5 -2.8 C19.61 -3.72, 81.34 -2.36, 97.46 -1.66" stroke="#000000" stroke-width="1" fill="none"></path></g></g><g stroke-linecap="round"><g transform="translate(194.87656084002555 614.4567239595026) rotate(0 46.40601763114543 -0.5332479293326742)"><path d="M-0.22 2.01 C15.54 1.68, 81 -2.89, 96.59 -3.08 M-3.78 0.63 C11.49 0.7, 77.65 0.13, 94.74 -0.57" stroke="#000000" stroke-width="1" fill="none"></path></g></g><g transform="translate(222.58025164157306 536.133270691083) rotate(0 12.696470549848613 10.239089153103805)"><text x="0" y="14.478178306207447" font-family="Virgil, Segoe UI Emoji" font-size="16.382542644965962px" fill="#000000" text-anchor="start" style="white-space: pre;" direction="ltr">typ</text></g><g transform="translate(217.66548884808384 584.2917027359563) rotate(0 29.5 10)"><text x="29.5" y="14" font-family="Virgil, Segoe UI Emoji" font-size="16px" fill="#000000" text-anchor="middle" style="white-space: pre;" direction="ltr">pkgpath</text></g><g transform="translate(225.8567601705667 625.008564540024) rotate(0 17.611233343338398 10.239089153103805)"><text x="0" y="14.478178306207447" font-family="Virgil, Segoe UI Emoji" font-size="16.382542644965955px" fill="#000000" text-anchor="start" style="white-space: pre;" direction="ltr">mhdr</text></g><g stroke-linecap="round"><g transform="translate(293.4046409480191 547.5400405630035) rotate(0 19.911873037887062 -4.585753950745357)"><path d="M-2.55 1.92 C4.39 0.42, 35.09 -9.49, 42.38 -11.1 M1.26 0.5 C7.72 -0.5, 33.71 -6.33, 39.92 -8.49" stroke="#000000" stroke-width="1" fill="none"></path></g><g transform="translate(293.4046409480191 547.5400405630035) rotate(0 19.911873037887062 -4.585753950745357)"><path d="M24.81 3.58 C25.38 -1.93, 36.02 -2, 39.26 -5.89 M22.68 5.56 C27.87 1.31, 31.34 -1.08, 40.59 -8.44" stroke="#000000" stroke-width="1" fill="none"></path></g><g transform="translate(293.4046409480191 547.5400405630035) rotate(0 19.911873037887062 -4.585753950745357)"><path d="M20.86 -10.86 C22.5 -11.6, 34.42 -6.96, 39.26 -5.89 M18.73 -8.88 C24.54 -10.06, 28.84 -9.41, 40.59 -8.44" stroke="#000000" stroke-width="1" fill="none"></path></g></g><g stroke-linecap="round"><g transform="translate(297.2033478236213 591.1407214529895) rotate(0 15.39907526704161 -2.576334748616091)"><path d="M1.92 -0.41 C6.59 -0.77, 21.34 -4.49, 25.89 -4.74 M-0.47 -3.1 C5.27 -2.9, 26.48 -1.38, 31.27 -1.99" stroke="#000000" stroke-width="1" fill="none"></path></g><g transform="translate(297.2033478236213 591.1407214529895) rotate(0 15.39907526704161 -2.576334748616091)"><path d="M17.77 1.03 C19.62 3.11, 25.41 0.05, 33.09 -4.48 M19.16 4.2 C20.98 2.8, 24.14 1.07, 31.31 -1.63" stroke="#000000" stroke-width="1" fill="none"></path></g><g transform="translate(297.2033478236213 591.1407214529895) rotate(0 15.39907526704161 -2.576334748616091)"><path d="M17.69 -8.53 C19.38 -4.29, 25.19 -5.19, 33.09 -4.48 M19.07 -5.36 C20.86 -4.59, 24.05 -4.15, 31.31 -1.63" stroke="#000000" stroke-width="1" fill="none"></path></g></g><g stroke-linecap="round"><g transform="translate(294.2605365733278 638.5753904445351) rotate(0 20.60695755668314 -3.3430111241300438)"><path d="M-0.41 -1.88 C6.64 -3.16, 32.59 -4.78, 39.76 -5.75 M-4.08 3.27 C4.13 0.99, 37.7 -8.6, 45.29 -9.95" stroke="#000000" stroke-width="1" fill="none"></path></g><g transform="translate(294.2605365733278 638.5753904445351) rotate(0 20.60695755668314 -3.3430111241300438)"><path d="M25.12 -0.62 C33.43 1.05, 34.29 -0.53, 41.73 -12.88 M29.66 1.39 C34.05 -1.74, 37.93 -4.86, 45.8 -11.7" stroke="#000000" stroke-width="1" fill="none"></path></g><g transform="translate(294.2605365733278 638.5753904445351) rotate(0 20.60695755668314 -3.3430111241300438)"><path d="M21.73 -14.59 C30.94 -9.98, 32.51 -8.65, 41.73 -12.88 M26.28 -12.57 C31.67 -11.95, 36.47 -11.26, 45.8 -11.7" stroke="#000000" stroke-width="1" fill="none"></path></g></g><g transform="translate(338.89630442083177 528.4276121265857) rotate(0 87.23703958444378 10.239089153103805)"><text x="0" y="14.478178306207447" font-family="Virgil, Segoe UI Emoji" font-size="16.382542644965966px" fill="#000000" text-anchor="start" style="white-space: pre;" direction="ltr">type of the interface</text></g><g transform="translate(337.25805015633483 571.8413501357468) rotate(0 54 10.5)"><text x="0" y="15" font-family="Virgil, Segoe UI Emoji" font-size="16.382542644965962px" fill="#000000" text-anchor="start" style="white-space: pre;" direction="ltr">package path</text></g><g transform="translate(343.8110672143219 618.5315966738976) rotate(0 61.844098484746496 10.239089153103805)"><text x="0" y="14.478178306207447" font-family="Virgil, Segoe UI Emoji" font-size="16.38254264496596px" fill="#000000" text-anchor="start" style="white-space: pre;" direction="ltr">list of methods</text></g><g stroke-linecap="round" transform="translate(181.5864756532689 714.0147084675777) rotate(0 49.55719150102203 42.18504731078724)"><path d="M-0.66 2.6 C20.47 -3.79, 46.95 0.37, 101.9 3.72 M0.67 0.05 C28.84 -1.74, 56.09 -0.13, 98.67 1.27 M101.07 0.23 C97.07 19.27, 95.75 41.49, 103.1 85.56 M98.8 0.19 C99.5 26.75, 99.83 54.82, 100.24 83.82 M95.43 84.25 C72.01 82.54, 40.43 85.74, 3.27 83.17 M97.86 85.66 C73.41 85.7, 46.75 84.19, -0.62 82.53 M0.52 81.09 C1 57.2, 0.61 35.24, 0.01 -3.85 M-0.22 83.47 C-0.49 57.74, -1.23 29.05, 0.4 0.68" stroke="#000000" stroke-width="1" fill="none"></path></g><g stroke-linecap="round"><g transform="translate(183.4004482927184 757.1543506651569) rotate(0 47.49799023241735 1.4558364513886772)"><path d="M-0.46 1.82 C14.97 1.65, 78.06 -0.03, 94.1 0.19 M-4.16 0.34 C11.99 0.35, 82.86 3.09, 99.15 2.71" stroke="#000000" stroke-width="1" fill="none"></path></g></g><g transform="translate(212.71330667870433 723.6047392462074) rotate(0 14.334724814345208 10.239089153103805)"><text x="0" y="14.478178306207447" font-family="Virgil, Segoe UI Emoji" font-size="16.38254264496596px" fill="#000000" text-anchor="start" style="white-space: pre;" direction="ltr">kind</text></g><g transform="translate(225.81934079467663 770.944044158834) rotate(90.91817095476576 6.553017057986381 10.239089153103805)"><text x="6.553017057986383" y="14.478178306207447" font-family="Virgil, Segoe UI Emoji" font-size="16.382542644965962px" fill="#000000" text-anchor="middle" style="white-space: pre;" direction="ltr">...</text></g><g stroke-linecap="round"><g transform="translate(282.3938547145447 734.0711675049715) rotate(0 21.696102651799833 -8.539015330398797)"><path d="M-2.05 -0.77 C5.22 -2.42, 37.24 -10.03, 45.44 -12.35 M2.04 -3.66 C8.85 -5.86, 36.21 -14.95, 43.67 -16.3" stroke="#000000" stroke-width="1" fill="none"></path></g><g transform="translate(282.3938547145447 734.0711675049715) rotate(0 21.696102651799833 -8.539015330398797)"><path d="M23.36 -1.69 C34.5 -3.81, 38.15 -9.3, 43.65 -14.97 M23.91 -3.07 C29.75 -5.37, 35.34 -10.27, 44.06 -15.33" stroke="#000000" stroke-width="1" fill="none"></path></g><g transform="translate(282.3938547145447 734.0711675049715) rotate(0 21.696102651799833 -8.539015330398797)"><path d="M19.26 -17.17 C31.62 -13.58, 36.77 -13.42, 43.65 -14.97 M19.81 -18.55 C26.97 -16.09, 33.8 -16.32, 44.06 -15.33" stroke="#000000" stroke-width="1" fill="none"></path></g></g><g transform="translate(339.6780121771904 705.2504279624823) rotate(0 105.5 52.5)"><text x="0" y="15" font-family="Virgil, Segoe UI Emoji" font-size="16.382542644965962px" fill="#000000" text-anchor="start" style="white-space: pre;" direction="ltr">kind can be:</text><text x="0" y="36" font-family="Virgil, Segoe UI Emoji" font-size="16.382542644965962px" fill="#000000" text-anchor="start" style="white-space: pre;" direction="ltr">basic: string, int, float,...</text><text x="0" y="57" font-family="Virgil, Segoe UI Emoji" font-size="16.382542644965962px" fill="#000000" text-anchor="start" style="white-space: pre;" direction="ltr">or slice, map, func, chan,...</text><text x="0" y="78" font-family="Virgil, Segoe UI Emoji" font-size="16.382542644965962px" fill="#000000" text-anchor="start" style="white-space: pre;" direction="ltr">struct</text><text x="0" y="99" font-family="Virgil, Segoe UI Emoji" font-size="16.382542644965962px" fill="#000000" text-anchor="start" style="white-space: pre;" direction="ltr">interface</text></g><g transform="translate(196.3307640337386 679.3248643218421) rotate(0 23.75468683520063 10.239089153103805)"><text x="0" y="14.478178306207447" font-family="Virgil, Segoe UI Emoji" font-size="16.38254264496596px" fill="#e67700" text-anchor="start" style="white-space: pre;" direction="ltr">_type</text></g><g stroke-linecap="round"><g transform="translate(106.89886857301047 635.933876066535) rotate(0 38.90258711750849 -25.101704718465726)"><path d="M1.95 2.6 C15.12 -5.7, 65.46 -40.18, 78.24 -48.98 M-0.43 1.55 C12.4 -7.6, 62.91 -43.34, 75.78 -52.81" stroke="#000000" stroke-width="1" fill="none"></path></g><g transform="translate(106.89886857301047 635.933876066535) rotate(0 38.90258711750849 -25.101704718465726)"><path d="M62.61 -28.58 C66.45 -35.02, 69.28 -41.66, 76.81 -56.3 M60.17 -28.68 C63.94 -34.3, 69.11 -41.33, 74.59 -54.42" stroke="#000000" stroke-width="1" fill="none"></path></g><g transform="translate(106.89886857301047 635.933876066535) rotate(0 38.90258711750849 -25.101704718465726)"><path d="M50.63 -45.24 C57.83 -47.31, 63.93 -49.41, 76.81 -56.3 M48.18 -45.34 C55.19 -46.37, 63.63 -48.86, 74.59 -54.42" stroke="#000000" stroke-width="1" fill="none"></path></g></g><g stroke-linecap="round"><g transform="translate(106.24783417089958 665.9815225552188) rotate(0 36.23893327087745 32.36376678752049)"><path d="M2.6 -0.4 C14.44 9.97, 60.56 53.41, 71.9 64.19 M0.57 -3.08 C12.16 7.59, 59.38 56.06, 70.85 67.81" stroke="#000000" stroke-width="1" fill="none"></path></g><g transform="translate(106.24783417089958 665.9815225552188) rotate(0 36.23893327087745 32.36376678752049)"><path d="M43.24 57.93 C52.92 59.95, 61.98 63.94, 67.36 66.7 M43.14 55.22 C52.06 59.25, 59.71 60.89, 69.24 65.96" stroke="#000000" stroke-width="1" fill="none"></path></g><g transform="translate(106.24783417089958 665.9815225552188) rotate(0 36.23893327087745 32.36376678752049)"><path d="M57.92 43.59 C62.95 50.63, 67.15 59.37, 67.36 66.7 M57.82 40.88 C62.38 49.3, 65.72 55.14, 69.24 65.96" stroke="#000000" stroke-width="1" fill="none"></path></g></g><g stroke-linecap="round" transform="translate(138.6177016737401 932.236459355749) rotate(0 49.55719150102203 67.98755197660876)"><path d="M3.11 -0.02 C37.98 0.38, 74.32 -3.21, 98.01 -0.28 M0.41 0.39 C28.49 0.78, 53.84 -0.94, 97.26 -1.75 M100.82 1.53 C99.29 54.74, 99.26 108.22, 99.1 137.66 M97.61 0.31 C96.52 48.41, 98.51 95.88, 97.17 136.51 M99.68 139.26 C58.75 137.72, 23.03 134.53, -2.66 132.36 M98.49 136.93 C72.69 133.88, 45.98 133.62, 0.04 134.78 M2.38 135.47 C2.18 93.35, 3.64 55.1, -0.45 -2.57 M0.68 135.12 C-1.69 93.66, -1.65 48.71, 0.49 1.97" stroke="#000000" stroke-width="1" fill="none"></path></g><g transform="translate(139.84639237211053 896.3223747017005) rotate(0 43 10.5)"><text x="0" y="15" font-family="Virgil, Segoe UI Emoji" font-size="16.38254264496597px" fill="#e67700" text-anchor="start" style="white-space: pre;" direction="ltr">structtype</text></g><g stroke-linecap="round"><g transform="translate(140.5850411046385 975.3291430039321) rotate(0 46.598821857469176 0.43331794624987197)"><path d="M-0.01 0.94 C16.16 1.07, 80.97 2.87, 96.66 2.95 M-3.46 -1.02 C12.38 -1.98, 77.27 -2.53, 94.46 -1.67" stroke="#000000" stroke-width="1" fill="none"></path></g></g><g stroke-linecap="round"><g transform="translate(142.04084189762665 1020.1499434027987) rotate(0 47.293372692914915 -1.6894019777757876)"><path d="M0.94 0.06 C16.67 -0.51, 80.89 -3.23, 96.59 -3.44 M-2 -2.37 C13.23 -2.68, 78.93 -1.84, 94.74 -1.14" stroke="#000000" stroke-width="1" fill="none"></path></g></g><g transform="translate(169.74453269917416 941.8264901343791) rotate(0 12.696470549848613 10.239089153103805)"><text x="0" y="14.478178306207447" font-family="Virgil, Segoe UI Emoji" font-size="16.382542644965962px" fill="#000000" text-anchor="start" style="white-space: pre;" direction="ltr">typ</text></g><g transform="translate(164.82976990568494 989.9849221792524) rotate(0 30.30770389318704 10.239089153103805)"><text x="30.30770389318703" y="14.478178306207447" font-family="Virgil, Segoe UI Emoji" font-size="16.382542644965966px" fill="#000000" text-anchor="middle" style="white-space: pre;" direction="ltr">pkgpath</text></g><g transform="translate(173.0210412281678 1030.7017839833202) rotate(0 21.5 10.5)"><text x="0" y="15" font-family="Virgil, Segoe UI Emoji" font-size="16.382542644965955px" fill="#000000" text-anchor="start" style="white-space: pre;" direction="ltr">fields</text></g><g stroke-linecap="round"><g transform="translate(240.5689220056201 952.6942102069747) rotate(0 20.692879648280552 -5.862967304747826)"><path d="M-0.77 -0.2 C6.13 -1.04, 35.06 -6.07, 42.16 -7.48 M4 -2.78 C10.41 -4.19, 33.66 -11.11, 39.58 -11.53" stroke="#000000" stroke-width="1" fill="none"></path></g><g transform="translate(240.5689220056201 952.6942102069747) rotate(0 20.692879648280552 -5.862967304747826)"><path d="M20.58 -1.07 C29.71 -5.11, 34.08 -6.69, 41.54 -11.29 M19.12 1.82 C26.14 -2.16, 30.9 -4.52, 39.26 -11.33" stroke="#000000" stroke-width="1" fill="none"></path></g><g transform="translate(240.5689220056201 952.6942102069747) rotate(0 20.692879648280552 -5.862967304747826)"><path d="M17.66 -15.75 C27.48 -14.99, 32.8 -11.79, 41.54 -11.29 M16.2 -12.86 C23.69 -13.26, 29.14 -12.09, 39.26 -11.33" stroke="#000000" stroke-width="1" fill="none"></path></g></g><g stroke-linecap="round"><g transform="translate(244.3676288812223 996.8339408962861) rotate(0 12.90236612609263 -2.347183225502704)"><path d="M-0.2 -0.63 C5.13 -1.18, 24.8 -3.74, 29.56 -4.07 M-3.75 -3.44 C1.59 -3.52, 23.19 -1.66, 28.29 -0.95" stroke="#000000" stroke-width="1" fill="none"></path></g><g transform="translate(244.3676288812223 996.8339408962861) rotate(0 12.90236612609263 -2.347183225502704)"><path d="M14.1 4.2 C16.69 2.3, 21.05 2.38, 28.45 -2.61 M16.12 2.84 C18.04 2.51, 21.28 0.96, 28.42 -1.18" stroke="#000000" stroke-width="1" fill="none"></path></g><g transform="translate(244.3676288812223 996.8339408962861) rotate(0 12.90236612609263 -2.347183225502704)"><path d="M15.11 -5.31 C17.43 -5.19, 21.58 -3.09, 28.45 -2.61 M17.13 -6.67 C18.65 -4.92, 21.67 -4.39, 28.42 -1.18" stroke="#000000" stroke-width="1" fill="none"></path></g></g><g stroke-linecap="round"><g transform="translate(241.42481763092877 1044.0003204349296) rotate(0 19.90610318303439 -4.959312060273305)"><path d="M-0.63 1.78 C6.24 0.65, 33.35 -5.67, 40.44 -7 M4.23 0.28 C10.71 -1.74, 31.66 -9.82, 37.69 -11.7" stroke="#000000" stroke-width="1" fill="none"></path></g><g transform="translate(241.42481763092877 1044.0003204349296) rotate(0 19.90610318303439 -4.959312060273305)"><path d="M23.97 0.28 C26.69 -1.16, 32.26 -5.33, 35.3 -14.92 M22.02 2.02 C25.88 -0.7, 28.08 -4.03, 37.36 -11.94" stroke="#000000" stroke-width="1" fill="none"></path></g><g transform="translate(241.42481763092877 1044.0003204349296) rotate(0 19.90610318303439 -4.959312060273305)"><path d="M19.21 -13.29 C23.21 -11.02, 30.07 -11.49, 35.3 -14.92 M17.26 -11.56 C21.87 -11.56, 25.06 -12.08, 37.36 -11.94" stroke="#000000" stroke-width="1" fill="none"></path></g></g><g transform="translate(286.06058547843287 934.1208315698818) rotate(0 77 10.5)"><text x="0" y="15" font-family="Virgil, Segoe UI Emoji" font-size="16.382542644965966px" fill="#000000" text-anchor="start" style="white-space: pre;" direction="ltr">type of the struct</text></g><g transform="translate(284.42233121393593 977.5345695790429) rotate(0 54 10.5)"><text x="0" y="15" font-family="Virgil, Segoe UI Emoji" font-size="16.382542644965962px" fill="#000000" text-anchor="start" style="white-space: pre;" direction="ltr">package path</text></g><g transform="translate(290.975348271923 1024.2248161171938) rotate(0 51 10.5)"><text x="0" y="15" font-family="Virgil, Segoe UI Emoji" font-size="16.38254264496596px" fill="#000000" text-anchor="start" style="white-space: pre;" direction="ltr">list of fields</text></g><g stroke-linecap="round"><g transform="translate(405.5761831605303 779.7640492122046) rotate(0 -60.8256613407589 52.859529843069595)"><path d="M0.54 1.37 C14.56 2.16, 69.63 -0.51, 83.16 5.33 C96.7 11.17, 90.68 26.66, 81.75 36.41 C72.82 46.15, 66.54 58.43, 29.56 63.79 C-7.43 69.15, -100.21 61.51, -140.17 68.56 C-180.12 75.6, -198.25 99.95, -210.2 106.07 M-2.61 -0.35 C11.14 0.72, 66.02 1.64, 81.01 8.05 C96.01 14.46, 96.06 29.57, 87.36 38.11 C78.66 46.64, 67.24 54, 28.81 59.27 C-9.61 64.55, -102.57 62.29, -143.19 69.78 C-183.8 77.27, -203.63 98.79, -214.85 104.2" stroke="#000000" stroke-width="1" fill="none"></path></g><g transform="translate(405.5761831605303 779.7640492122046) rotate(0 -60.8256613407589 52.859529843069595)"><path d="M-195 80.36 C-204.02 83.4, -210.11 89.54, -210.87 105.39 M-197.28 80.32 C-202.81 87.72, -208.21 96.51, -213.72 103.65" stroke="#000000" stroke-width="1" fill="none"></path></g><g transform="translate(405.5761831605303 779.7640492122046) rotate(0 -60.8256613407589 52.859529843069595)"><path d="M-183.71 97.49 C-195.81 96.01, -204.91 97.58, -210.87 105.39 M-185.99 97.45 C-195.28 99.46, -204.29 102.77, -213.72 103.65" stroke="#000000" stroke-width="1" fill="none"></path></g></g><g stroke-linecap="round"><g transform="translate(268.09104476547765 271.1305149177133) rotate(0 -65.14527146283834 149.93566604768648)"><path d="M2.67 -2.56 C13.07 4.34, 51.77 11.55, 62.72 42.14 C73.67 72.73, 107.61 155.16, 68.38 180.97 C29.14 206.78, -125.6 176.77, -172.71 197.01 C-219.82 217.26, -206.96 285.04, -214.28 302.43 M0.67 2.23 C10.91 8.19, 51.03 8.54, 61.96 37.66 C72.88 66.78, 105.49 150.16, 66.23 176.96 C26.97 203.75, -126.42 178.62, -173.6 198.45 C-220.77 218.28, -210.14 279.08, -216.82 295.94" stroke="#000000" stroke-width="1" fill="none"></path></g><g transform="translate(268.09104476547765 271.1305149177133) rotate(0 -65.14527146283834 149.93566604768648)"><path d="M-226.84 270.51 C-219.66 274.74, -215.07 280.89, -219.9 298.4 M-224.64 266.75 C-219.73 278.31, -218.5 290.19, -217.25 297.9" stroke="#000000" stroke-width="1" fill="none"></path></g><g transform="translate(268.09104476547765 271.1305149177133) rotate(0 -65.14527146283834 149.93566604768648)"><path d="M-206.51 273.27 C-205.67 277.03, -207.41 282.32, -219.9 298.4 M-204.3 269.51 C-207.13 280.19, -213.63 291.02, -217.25 297.9" stroke="#000000" stroke-width="1" fill="none"></path></g></g></svg>