<svg version="1.2" xmlns="http://www.w3.org/2000/svg" viewBox="0 0 2048 2048" width="2048" height="2048">
	<title>DC28</title>
	<style>
		.s1 { fill:white;stroke: url(#g1);stroke-width: 0;stroke-dasharray: 0,0 } 
		.s2 { fill:white;stroke: url(#g2);stroke-width: 0;stroke-dasharray: 0,0 } 
		.s3 { fill:white;stroke: url(#g3);stroke-width: 0;stroke-dasharray: 0,0 } 
		.s4 { fill:white;stroke: url(#g4);stroke-width: 0;stroke-dasharray: 0,0 } 
	</style>
	<g id="logo">
		<g id="logo">
			<path id="bk" fill-rule="evenodd" class="s1" d="m1090.5 1071.3l111.5 189.6 232.5-3.8-194.1-332 65.7-113.7 335 575h-501l-119.9-207.3-69.8-120.7-220.2 1.5-113 202.9 385.1-1.9 72.6 125.5h-666.9l257.8-442.6h229.3 139.7l108.8-191.1-119.6-199.1-190.9 333.8h-134.4l325.8-559.4 248.9 427.2-113 195.3z"/>
			<path id="Rectangle 2 copy 3" fill-rule="evenodd" class="s2" d="m950.4 1058.4l-220.2 1.5-113 202.9 385.1-1.9 72.6 125.5h-666.9l257.8-442.6h229.3 139.7z"/>
			<path id="Rectangle 2 copy 4" fill-rule="evenodd" class="s3" d="m1090.5 1071.3l111.5 189.6 232.5-3.8-194.1-332 65.7-113.7 335 575h-501l-119.9-207.3-69.8-120.7z"/>
			<path id="Rectangle 2 copy 5" fill-rule="evenodd" class="s4" d="m1090.5 1071.3l-55.7-127.5 108.8-191.1-119.6-199.1-190.9 333.8h-134.4l325.8-559.4 248.9 427.2-113 195.3z"/>
		</g>
	</g>
</svg>